<svg width="167" height="48" viewBox="0 0 167 48" fill="none" xmlns="http://www.w3.org/2000/svg">
<g clip-path="url(#clip0_616_30567)">
<path d="M8.48079 45.0101C8.82146 45.0121 9.04082 44.8157 9.0515 44.4987C9.06219 44.1963 8.807 43.9129 8.52982 43.9188C8.20612 43.9254 8.00876 44.1145 8.00059 44.4256C7.99179 44.7656 8.19104 45.0088 8.48079 45.0101ZM39.4865 45.02C39.7712 45.0174 40.0088 44.765 40 44.475C39.9905 44.1587 39.7768 43.9485 39.4707 43.9551C39.1829 43.961 38.9673 44.2055 38.978 44.5132C38.9874 44.8052 39.2061 45.0227 39.4871 45.02H39.4865Z" fill="#05869F"/>
<path d="M9.34067 34.6108C9.35512 34.6201 9.36895 34.6306 9.38403 34.6372C9.38655 34.6385 9.40226 34.6207 9.40101 34.6168C9.39472 34.6016 9.38341 34.5878 9.37461 34.5739C9.36329 34.5865 9.35198 34.5983 9.34067 34.6108Z" fill="#098CA6"/>
<path d="M36.6631 13.4504C36.6644 13.7806 36.665 14.1114 36.6663 14.4416C36.665 14.5319 36.6637 14.6222 36.6625 14.7118C36.6625 14.8172 36.6625 14.9233 36.6619 15.0288C36.6619 15.2087 36.6612 15.388 36.6606 15.5679C36.6606 16.7277 36.6606 17.8876 36.6606 19.0475C36.6619 21.1366 36.6625 23.2257 36.6637 25.3148C36.6637 25.6429 36.6644 25.9711 36.665 26.2993C36.665 26.3883 36.665 26.4773 36.665 26.5662C36.665 26.6532 36.665 26.7395 36.665 26.8265C36.66 27.6688 36.6512 28.511 36.6512 29.3532C36.6512 30.8854 36.6556 32.417 36.6581 33.9492C36.6581 34.1436 36.6581 34.3374 36.6587 34.5318C36.66 35.919 36.6612 37.3069 36.6619 38.6941C36.6619 38.7778 36.6619 38.8615 36.6619 38.9452C36.6512 39.4329 36.6223 39.9212 36.6807 40.4076C36.682 40.6198 36.6832 40.8313 36.6845 41.0435C36.6788 41.3322 36.6738 41.6208 36.6681 41.9095C36.6543 42.3497 36.5204 42.759 36.3696 43.1636C36.2502 43.3402 36.1307 43.5175 36.0113 43.6941C35.995 43.7178 35.9793 43.7422 35.9629 43.7659L35.9598 43.7712C35.9057 43.8009 35.8529 43.845 35.8768 43.9103C35.9045 43.9867 35.9717 43.9478 36.0245 43.9333C36.5418 43.9281 37.0597 43.9221 37.577 43.9169C37.604 43.9235 37.6311 43.93 37.6581 43.9366L37.7731 43.9518C37.7913 43.963 37.8115 43.9669 37.8322 43.965C37.851 43.9689 37.8699 43.9709 37.8888 43.9709C38.0742 44.1475 38.2407 44.3426 38.1276 44.6253C38.012 44.9133 37.7618 44.9489 37.4959 44.9462C37.1087 44.9423 36.7216 44.9522 36.3344 44.9555C36.2401 44.9528 36.1465 44.9482 36.0522 44.9482C29.2307 44.9469 22.4086 44.9462 15.5871 44.9462C14.269 44.9462 12.951 44.9509 11.6323 44.9535C11.2552 44.9535 10.8787 44.9574 10.5016 44.9502C10.1565 44.9436 9.99246 44.7815 9.99434 44.4678C9.99623 44.1251 10.1534 43.9524 10.5041 43.9445C11.0063 43.9327 11.5091 43.9406 12.0113 43.9347C12.1226 43.9333 12.2401 43.963 12.3444 43.9017C12.3444 43.8753 12.3526 43.8463 12.3432 43.8371C11.7643 43.2513 11.5569 42.5362 11.5575 41.6973C11.5663 29.6452 11.5613 17.593 11.56 5.54025C11.56 5.12375 11.5456 4.70659 11.6248 4.2947C11.6304 4.25648 11.6361 4.21892 11.6417 4.18069C11.7486 3.93752 11.8554 3.695 11.9623 3.45182H11.9648C12.0937 3.3411 12.1904 3.20469 12.2652 3.04982L12.2665 3.04718C12.2879 3.02609 12.3092 3.005 12.3306 2.98392C12.3514 2.96217 12.3721 2.93976 12.3928 2.91801C12.5368 2.83234 12.6618 2.72229 12.7643 2.58587L12.7674 2.58323C13.1634 2.35126 13.572 2.15223 14.0163 2.04481C14.0597 2.04152 14.1031 2.03822 14.1465 2.03559C15.9233 2.03691 17.7002 2.04218 19.4771 2.03954C22.3514 2.03493 25.2257 2.08436 28.0999 2.00198C29.9397 2.0033 31.78 2.02043 33.6197 2C35.0032 1.98484 36.2671 3.03927 36.5839 4.34413C36.5915 4.3751 36.6091 4.4041 36.6216 4.43376C36.6285 4.77315 36.6392 5.11254 36.6411 5.4526C36.6487 6.82204 36.6537 8.19148 36.6593 9.56092C36.6593 9.71842 36.6593 9.87593 36.6593 10.0341M35.6311 37.098C35.6298 37.0209 35.6273 36.9444 35.6273 36.8673C35.6367 27.4697 35.6461 18.0721 35.6568 8.67388C35.6581 7.53246 35.6707 6.39038 35.6681 5.24896C35.6656 3.95267 34.8825 3.08936 33.7134 3.09002C27.3155 3.09199 20.9183 3.09529 14.5204 3.0999C13.3042 3.10056 12.5607 3.87623 12.56 5.14484C12.5594 6.48396 12.5669 7.82375 12.5669 9.16287C12.5669 19.9767 12.5669 30.7905 12.5594 41.6044C12.5594 42.1771 12.6644 42.6911 13.0333 43.126C13.4651 43.6697 14.0277 43.8958 14.6914 43.8951C19.1911 43.8931 23.6914 43.8958 28.1911 43.8925C30.012 43.8912 31.8334 43.9083 33.6531 43.8602C34.8906 43.8272 35.6424 42.9415 35.6468 41.6373C35.6512 40.2329 35.6512 38.8286 35.6512 37.4242C35.6512 37.3155 35.638 37.2067 35.6311 37.0973V37.098Z" fill="#041F33"/>
<path d="M11.5707 44.9542C12.8887 44.9515 14.2068 44.9469 15.5255 44.9469C22.3469 44.9469 29.1691 44.9482 35.9906 44.9489C36.0848 44.9489 36.1785 44.9535 36.2728 44.9561C36.4142 45.6079 36.1031 45.9994 35.4343 46C30.2206 46.0013 25.0069 46 19.7926 46C17.5204 46 15.2489 46 12.9767 46C11.9931 46 11.8598 45.9005 11.5707 44.9555V44.9542Z" fill="#01586F"/>
<path d="M8.48079 45.0101C8.19104 45.0088 7.99179 44.7656 8.00059 44.4256C8.00876 44.1152 8.20612 43.9261 8.52982 43.9188C8.80763 43.9129 9.06219 44.1956 9.0515 44.4987C9.04082 44.8157 8.82146 45.0121 8.48079 45.0101Z" fill="#041F33"/>
<path d="M39.4865 45.0201C39.2062 45.0227 38.9874 44.8052 38.9774 44.5133C38.9673 44.2055 39.1829 43.9617 39.4702 43.9551C39.7769 43.9485 39.9906 44.1581 39.9994 44.4751C40.0076 44.7657 39.7706 45.0174 39.4859 45.0201H39.4865Z" fill="#041F33"/>
<path d="M11.3834 25.6436C11.3243 25.6291 11.2659 25.612 11.2759 25.5296C11.2835 25.467 11.3356 25.4571 11.3834 25.4452C11.3834 25.5118 11.3834 25.5777 11.3834 25.6443V25.6436Z" fill="#0D92AB"/>
<path d="M36.6224 41.0442C36.6213 40.832 36.6202 40.6204 36.6191 40.4082L36.6224 41.0442Z" fill="#05869F"/>
<path d="M9.34067 34.6108C9.35198 34.5983 9.36329 34.5858 9.37461 34.5739C9.38403 34.5884 9.39472 34.6016 9.40101 34.6168C9.40289 34.6207 9.38718 34.6385 9.38403 34.6372C9.36895 34.6306 9.35512 34.6201 9.34067 34.6108Z" fill="#05869F"/>
<path d="M12.9723 43.126C12.6034 42.6911 12.4984 42.177 12.4984 41.6044C12.506 30.7905 12.5053 19.9767 12.506 9.16287C12.506 7.82374 12.4978 6.48396 12.4991 5.14483C12.4997 3.87622 13.2432 3.10056 14.4595 3.0999C20.8573 3.09529 27.2546 3.09199 33.6524 3.09002C34.8215 3.09002 35.6053 3.95333 35.6072 5.24896C35.6091 6.39038 35.5971 7.53246 35.5959 8.67388C35.5852 18.0715 35.5757 27.4691 35.5663 36.8673C35.5663 36.9444 35.5688 37.0209 35.5701 37.098C35.5519 37.0486 35.5135 36.9965 35.5179 36.9491C35.5581 36.5121 35.3941 36.149 35.2426 35.749C35.0484 35.2376 34.7329 34.7235 34.8756 34.112C34.851 34.226 34.851 34.3354 34.851 34.4441C34.8454 36.7487 34.8422 39.054 34.8316 41.3585C34.8284 42.0676 34.462 42.5922 33.8322 42.838C33.5336 42.9547 33.2263 42.9916 32.9089 42.9916C29.1194 42.9903 25.33 42.9936 21.5405 42.9929C19.4362 42.9929 17.3325 42.9837 15.2282 42.9883C14.4305 42.9896 13.785 42.7537 13.484 41.8943C13.3998 41.6531 13.4167 41.5338 13.5795 41.4225C13.7291 42.2476 14.2112 42.6324 15.1182 42.6324C21.0641 42.6351 27.0107 42.6351 32.9566 42.6331C33.1546 42.6331 33.3558 42.6192 33.5493 42.5804C34.1188 42.465 34.5142 41.9754 34.5167 41.3796C34.5236 39.4151 34.5248 37.4499 34.528 35.4854C34.56 34.5436 34.577 33.6012 34.5361 32.6595C34.5387 32.5172 34.5431 32.3741 34.5431 32.2318C34.5431 25.7642 34.5431 19.2959 34.5418 12.8283C34.5418 10.4124 34.5449 7.99641 34.5273 5.5811C34.5198 4.55304 34.1075 4.15169 33.1351 4.15169C31.1245 4.15169 29.1131 4.15499 27.1025 4.15499C23.0176 4.15565 18.9334 4.1629 14.8485 4.14906C14.1961 4.14708 13.582 4.46473 13.5808 5.37944C13.5726 10.2114 13.5613 15.0426 13.5581 19.8745C13.555 24.7829 13.5594 29.6913 13.5607 34.6003C13.379 34.5469 13.4456 34.3881 13.445 34.2708C13.4362 33.2618 13.4349 32.2529 13.4312 31.2439C13.4312 31.0904 13.4544 30.9138 13.2508 30.8848C12.9642 30.8446 12.9095 30.5902 12.8793 30.3839C12.7285 29.3519 12.8316 28.31 12.7957 27.2733C12.8152 27.4038 12.8165 27.535 12.8152 27.6655C12.7706 32.3484 12.7863 37.0308 12.7907 41.7138C12.7907 42.1303 12.814 42.5441 13.0226 42.9171C13.0735 43.0074 13.0798 43.0812 12.9711 43.126H12.9723ZM34.8605 33.5281C34.8605 33.5281 34.8649 33.5281 34.8674 33.5281V33.3745C34.8674 33.3745 34.863 33.3745 34.8605 33.3745V33.5281Z" fill="#ECF9F9"/>
<path d="M12.9723 43.126C13.0811 43.0812 13.0742 43.0074 13.0239 42.9171C12.8152 42.5441 12.792 42.1302 12.792 41.7137C12.7876 37.0308 12.7725 32.3478 12.8165 27.6655C12.8177 27.5343 12.8165 27.4038 12.797 27.2733C12.8328 28.3106 12.7297 29.3519 12.8806 30.3839C12.9107 30.5895 12.9648 30.8439 13.252 30.8848C13.4557 30.9138 13.4318 31.0904 13.4324 31.2439C13.4356 32.2529 13.4375 33.2618 13.4463 34.2708C13.4475 34.3881 13.3803 34.5469 13.5619 34.5996C13.5695 34.6642 13.5839 34.7288 13.5839 34.7934C13.5839 37.0031 13.5814 39.2128 13.5801 41.4225C13.4173 41.5338 13.4004 41.6538 13.4846 41.8943C13.7857 42.7537 14.4312 42.9903 15.2288 42.9883C17.3325 42.9843 19.4368 42.9929 21.5412 42.9929C25.3306 42.9929 29.12 42.9903 32.9095 42.9916C33.2263 42.9916 33.5342 42.954 33.8328 42.838C34.4626 42.5922 34.829 42.0676 34.8322 41.3585C34.8429 39.0539 34.846 36.7487 34.8517 34.4441C34.8517 34.3347 34.8517 34.2253 34.8762 34.112C34.7335 34.7229 35.0496 35.2376 35.2432 35.749C35.3947 36.1483 35.5588 36.5121 35.5185 36.949C35.5141 36.9965 35.5518 37.0479 35.5707 37.098C35.5776 37.2067 35.5908 37.3155 35.5908 37.4249C35.5908 38.8292 35.5908 40.2336 35.5864 41.638C35.5826 42.9422 34.8303 43.8279 33.5927 43.8608C31.7731 43.9096 29.9516 43.8918 28.1307 43.8931C23.631 43.8964 19.1307 43.8931 14.6311 43.8958C13.9673 43.8958 13.4048 43.6697 12.973 43.1267L12.9723 43.126Z" fill="#0D92AB"/>
<path d="M35.8982 43.7719C35.8881 43.8397 35.917 43.8905 35.9629 43.934C35.9095 43.9478 35.8429 43.9867 35.8152 43.9109C35.7913 43.8457 35.8441 43.8015 35.8982 43.7719Z" fill="#01586F"/>
<path d="M37.7109 43.9516C37.736 43.9295 37.7555 43.934 37.77 43.9647C37.7486 43.9666 37.7291 43.9627 37.7109 43.9516Z" fill="#01586F"/>
<path d="M13.5795 41.4218C13.5814 39.2121 13.5827 37.0024 13.5833 34.7927C13.5833 34.7282 13.5688 34.6636 13.5613 34.599C13.56 29.6906 13.555 24.7823 13.5588 19.8739C13.5619 15.042 13.5739 10.2107 13.5814 5.37879C13.5827 4.46407 14.1967 4.14576 14.8492 4.1484C18.9334 4.1629 23.0182 4.15565 27.1031 4.15433C29.1138 4.15433 31.1251 4.15104 33.1358 4.15104C34.1081 4.15104 34.5204 4.55238 34.528 5.58045C34.5449 7.99641 34.5418 10.4117 34.5424 12.8277C34.5443 19.2953 34.5437 25.7635 34.5437 32.2311C34.5437 32.3735 34.5393 32.5165 34.5368 32.6588C34.494 33.6006 34.5022 34.543 34.5286 35.4854C34.5255 37.4499 34.5242 39.4151 34.5173 41.3796C34.5154 41.9754 34.1201 42.465 33.55 42.5804C33.3564 42.6199 33.1553 42.6331 32.9573 42.6331C27.0113 42.6351 21.0647 42.6344 15.1188 42.6324C14.2118 42.6324 13.7297 42.2476 13.5801 41.4225L13.5795 41.4218ZM27.4551 26.8081C26.792 27.7828 25.829 28.2474 24.7662 28.54C24.7121 28.5393 24.6675 28.5532 24.6543 28.6171C24.653 28.9426 24.6518 29.2682 24.6505 29.5938C24.6461 29.6484 24.6373 29.7031 24.6373 29.7578C24.6386 33.5999 24.6436 37.4413 24.6367 41.2834C24.6367 41.5806 24.775 41.5905 24.9855 41.5899C27.6656 41.5852 30.3457 41.5859 33.0258 41.5846C33.3434 41.5846 33.5024 41.4124 33.5028 41.0679C33.5016 37.0505 33.4984 33.0332 33.4991 29.0158C33.5009 21.2552 33.5053 13.4953 33.5079 5.73466C33.5079 5.25819 33.4645 5.21469 32.9981 5.21469C30.6216 5.21469 28.2451 5.21469 25.8686 5.21469C25.5443 5.21469 25.2194 5.2226 24.895 5.21271C24.7058 5.20678 24.6311 5.28059 24.6373 5.48094C24.6474 5.80979 24.6411 6.13929 24.6411 6.4688C24.6436 8.62247 24.6468 10.7768 24.6493 12.9305C24.6468 14.8937 24.6461 16.8576 24.6367 18.8208C24.6354 19.0317 24.7473 19.0758 24.8994 19.1121C25.5311 19.2617 26.093 19.5615 26.6229 19.9497C27.0031 20.2284 27.3067 20.5777 27.5977 20.9461C27.6109 20.9962 27.6354 21.0318 27.6914 21.0278C27.7228 22.8507 27.714 24.6735 27.6939 26.4964C27.533 26.532 27.4745 26.6539 27.4538 26.8081H27.4551ZM20.4331 26.5682C20.462 26.5207 20.4582 26.4746 20.428 26.4291C20.4305 24.6603 20.4331 22.8915 20.4362 21.1227C20.5097 21.0983 20.5651 21.0496 20.6028 20.9804C21.066 20.1342 21.8202 19.6729 22.6386 19.3052C23.489 18.9229 23.4959 18.9295 23.4959 17.9641C23.4959 16.5491 23.4884 15.1336 23.484 13.7187C23.4903 13.6317 23.5016 13.544 23.5016 13.457C23.4997 11.1749 23.4965 8.89333 23.4934 6.61115C23.4934 6.58347 23.4947 6.55645 23.4947 6.52877C23.489 6.49385 23.484 6.45892 23.4783 6.42399C23.4871 6.16104 23.4808 5.89678 23.5091 5.63646C23.5449 5.30761 23.44 5.20744 23.1144 5.20942C20.4551 5.2226 17.7957 5.21535 15.1364 5.21469C14.6084 5.21469 14.5921 5.23051 14.5927 5.79199C14.594 12.3202 14.5959 18.8485 14.5965 25.3767C14.5965 29.5265 14.5952 33.6757 14.5946 37.8255C14.5946 38.9011 14.5927 39.9772 14.5977 41.0528C14.5996 41.5213 14.6606 41.5833 15.0698 41.5833C17.7605 41.5859 20.4513 41.5839 23.142 41.5971C23.4318 41.5984 23.5129 41.5114 23.5123 41.2083C23.5035 38.4747 23.5091 35.7411 23.5091 33.0081C23.5091 32.8994 23.4934 32.79 23.4846 32.6812C23.4884 31.3902 23.4928 30.0986 23.4972 28.8075C23.4972 28.683 23.5028 28.5387 23.3382 28.5512C23.1458 28.5657 23.0031 28.4471 22.8391 28.3884C21.9459 28.0694 21.1942 27.5442 20.6512 26.7198C20.5996 26.642 20.5569 26.5412 20.4362 26.5642L20.4337 26.5682H20.4331ZM24.6587 27.6833C25.3507 27.3643 25.9824 26.9847 26.594 26.5649C26.7693 26.4443 26.8372 26.3085 26.8366 26.0825C26.8322 24.514 26.8416 22.9462 26.8529 21.3778C26.8542 21.2407 26.8064 21.1524 26.7071 21.0838C26.061 20.6384 25.3715 20.2785 24.6411 19.9035C24.6411 20.0676 24.6568 20.1975 24.638 20.3214C24.5915 20.6271 24.714 20.7893 24.9774 20.9224C25.3218 21.0964 25.6618 21.2842 25.983 21.5142C26.1307 21.6203 26.1395 21.7073 26.1402 21.8411C26.1433 22.9278 26.1043 24.0165 26.1622 25.0999C26.1961 25.7339 26.0773 26.1748 25.4664 26.3843C25.3558 26.4226 25.274 26.553 25.1634 26.5906C24.6945 26.7514 24.5537 27.0895 24.643 27.5692C24.6468 27.591 24.6493 27.6127 24.6593 27.6833H24.6587ZM23.4965 27.6971C23.4965 27.5126 23.4802 27.3696 23.4997 27.2318C23.5399 26.9524 23.4412 26.7995 23.1904 26.6815C22.8485 26.5214 22.5336 26.3 22.2011 26.1161C22.0471 26.0311 21.9786 25.9316 21.9786 25.7345C21.9786 24.4626 21.9692 23.1901 21.9466 21.9188C21.9422 21.6855 22.0163 21.5623 22.2087 21.4628C22.5739 21.2743 22.9271 21.0608 23.2872 20.8624C23.3941 20.8038 23.4821 20.7477 23.4764 20.5962C23.4676 20.3715 23.4739 20.1461 23.4739 19.8759C22.7568 20.3009 22.088 20.701 21.4155 21.0931C21.2948 21.1636 21.3099 21.2671 21.3092 21.3745C21.308 22.9759 21.3092 24.5766 21.303 26.1781C21.303 26.327 21.3476 26.4166 21.462 26.5016C22.0855 26.9662 22.7517 27.3478 23.4959 27.6978L23.4965 27.6971ZM24.6543 21.7468V25.8288C24.8221 25.7609 24.9749 25.6957 25.1301 25.637C25.264 25.5863 25.313 25.5012 25.3118 25.3444C25.3036 24.348 25.3061 23.3515 25.3067 22.3551C25.3067 22.2411 25.2986 22.1416 25.1867 22.077C25.0157 21.9788 24.8517 21.8694 24.6543 21.7462V21.7468ZM23.5035 21.7831C23.0467 21.9808 22.8184 22.309 22.8184 22.7676C22.8184 23.4926 22.8617 24.2208 22.8033 24.9404C22.7643 25.4222 22.9692 25.6344 23.325 25.809C23.4607 25.8756 23.5066 25.871 23.506 25.6976C23.5022 24.4027 23.5035 23.1084 23.5035 21.7831Z" fill="#041F33"/>
<path d="M34.5286 35.4854C34.5022 34.543 34.494 33.6006 34.5368 32.6589C34.5776 33.6012 34.56 34.5436 34.5286 35.4854Z" fill="#0D92AB"/>
<path d="M34.8605 33.5274V33.3739C34.8605 33.3739 34.8645 33.3739 34.8668 33.3739V33.5274C34.8668 33.5274 34.8627 33.5274 34.8605 33.5274Z" fill="#0D92AB"/>
<path d="M23.4846 32.6812C23.4934 32.79 23.5091 32.8994 23.5091 33.0081C23.5091 35.7417 23.5035 38.4753 23.5123 41.2083C23.5135 41.5108 23.4318 41.5984 23.142 41.5971C20.4513 41.5839 17.7605 41.5859 15.0698 41.5833C14.6606 41.5833 14.5996 41.5213 14.5977 41.0528C14.5927 39.9772 14.5946 38.9011 14.5946 37.8255C14.5946 33.6757 14.5971 29.5265 14.5965 25.3767C14.5965 18.8485 14.594 12.3202 14.5927 5.79199C14.5927 5.23051 14.6084 5.21469 15.1364 5.21469C17.7957 5.21535 20.4551 5.2226 23.1144 5.20942C23.44 5.2081 23.5449 5.30761 23.5091 5.63646C23.4808 5.89677 23.4871 6.1617 23.4789 6.42399C23.3539 6.41938 23.2282 6.41015 23.1031 6.41147C21.4727 6.42794 19.8416 6.45496 18.2112 6.45826C17.5431 6.45958 16.8756 6.39302 16.2062 6.41147C15.8039 6.42201 15.7165 6.49846 15.7165 6.90507C15.7165 8.69299 15.719 10.4809 15.7209 12.2688C15.7209 13.9381 15.7209 15.6074 15.7209 17.276C15.7209 18.4155 15.7216 19.5549 15.7222 20.6944C15.0805 20.8545 14.9152 21.3554 15.0691 21.8852C15.1735 22.245 15.193 22.6055 15.1452 22.9555C15.0698 23.5031 15.1125 24.0475 15.093 24.5931C15.0779 25.0182 15.0949 25.4419 15.0371 25.869C14.9365 26.6091 15.1326 26.905 15.7241 27.0368C15.7241 28.9453 15.7241 30.8544 15.7247 32.763C15.7247 32.8717 15.7115 32.9818 15.763 33.0852C15.9598 33.4813 16.1402 33.8807 16.2458 34.3202C16.2872 34.4922 16.4551 34.6537 16.6285 34.7189C17.0113 34.8633 17.0987 34.7861 17.0993 34.3631C17.0999 33.3976 17.0999 32.4321 17.1025 31.4667C17.1025 31.327 17.0742 31.1761 17.2118 31.0772C17.2118 32.1896 17.2118 33.302 17.2118 34.4145C17.1389 34.6511 17.1408 34.887 17.2118 35.1229C17.2118 35.4359 17.2112 35.7496 17.2106 36.0627C17.149 36.145 17.149 36.2268 17.2106 36.3091C17.2137 36.3638 17.2162 36.4185 17.2206 36.4726C17.2439 36.754 17.2238 36.9537 16.8888 37.0756C16.4368 37.2397 16.0578 38.0549 16.5512 38.6664C16.8278 39.0091 17.2948 39.1607 17.7134 39.0124C18.1043 38.8734 18.3394 38.4846 18.3646 38.0272C18.3884 37.5982 18.1785 37.3089 17.9177 37.0334C17.9145 37.011 17.9114 36.9893 17.9076 36.9668C17.8422 34.5555 17.8856 32.1435 17.88 29.7321C18.0383 29.8079 17.978 29.9588 17.9786 30.0788C17.9837 31.3474 17.983 32.6167 17.9843 33.8853C17.9843 34.278 18.2062 34.5331 18.6486 34.5753C18.9478 34.6036 18.912 34.2649 19.0295 34.0948C19.0572 34.0553 19.0503 33.9894 19.0591 33.9354C19.5795 34.7677 20.4293 34.7664 20.9051 33.9327C21.0327 34.2115 20.8152 34.4764 20.829 34.769C21.0101 34.7143 20.9598 34.485 21.1131 34.4817C21.4947 34.4731 21.8799 34.1779 22.2602 34.4982C22.303 34.5344 22.3815 34.5397 22.4412 34.5344C22.7348 34.5074 22.951 34.5891 23.0434 34.9193C23.0867 35.0741 23.1879 35.0695 23.2564 34.9272C23.2929 34.8514 23.3092 34.7618 23.3206 34.6768C23.3928 34.1212 23.3903 33.563 23.3878 33.0042C23.3878 32.8888 23.352 32.7557 23.4852 32.6819L23.4846 32.6812ZM22.2546 38.0002C22.2577 37.4189 21.797 36.9326 21.2451 36.9345C20.7121 36.9365 20.1961 37.44 20.1961 37.9593C20.1961 38.5861 20.6279 39.054 21.2068 39.0553C21.8014 39.0559 22.2514 38.6032 22.2546 38.0002Z" fill="#01586F"/>
<path d="M24.6424 6.4688C24.6424 6.13929 24.6487 5.80978 24.6386 5.48093C24.6323 5.28059 24.7071 5.20678 24.8963 5.21271C25.2206 5.2226 25.5456 5.21469 25.8699 5.21469C28.2464 5.21469 30.6229 5.21469 32.9994 5.21469C33.4658 5.21469 33.5091 5.25819 33.5091 5.73466C33.5066 13.4953 33.5022 21.2552 33.5003 29.0158C33.4997 33.0332 33.5028 37.0505 33.5041 41.0679C33.5041 41.4119 33.3451 41.5841 33.027 41.5846C30.347 41.5859 27.6669 41.5852 24.9868 41.5899C24.7763 41.5899 24.638 41.5806 24.638 41.2834C24.6449 37.442 24.6399 33.5999 24.6386 29.7578C24.6386 29.7031 24.6474 29.6484 24.6518 29.5937C24.7367 29.7104 24.704 29.8461 24.704 29.9747C24.7065 31.1115 24.7052 32.2489 24.7071 33.3857C24.7071 33.4938 24.7008 33.6111 24.7367 33.708C24.78 33.8266 24.8913 33.9354 24.9956 33.7917C25.1358 33.5986 25.3639 33.5465 25.5123 33.3857C25.6839 33.1999 25.8353 33.2012 26.0358 33.3291C26.3099 33.5044 26.4243 33.4536 26.5418 33.1459C26.616 32.9521 26.7725 32.8612 26.88 33.0457C27.0088 33.2671 27.1012 33.1623 27.225 33.0898C27.0371 33.793 27.2665 34.336 27.8316 34.5041C28.2106 34.6168 28.5449 34.5008 28.846 34.251C28.8385 34.3374 28.858 34.4415 28.819 34.5074C28.6342 34.8211 28.8422 34.8026 29.0333 34.8006C29.2319 34.7987 29.4098 34.7848 29.5343 35.026C29.6204 35.1914 29.8391 35.1512 30 35.1137C30.1546 35.0781 30.105 34.9186 30.1056 34.8072C30.1094 30.6567 30.1106 26.5062 30.1125 22.3564C30.1339 22.3538 30.1559 22.3511 30.1773 22.3492C30.1817 22.3927 30.1898 22.4362 30.1898 22.4796C30.1974 27.2648 30.2037 32.0492 30.2162 36.8344C30.2162 36.9998 30.1427 37.0815 30.0471 37.1896C29.6436 37.6423 29.5475 37.9712 29.8114 38.4714C30.0346 38.8951 30.5349 39.1436 30.9818 39.0421C31.4463 38.936 31.7379 38.5755 31.7662 38.0714C31.7951 37.5527 31.5336 37.1593 31.0396 36.984C30.9918 36.9668 30.9346 36.9767 30.907 36.9168C30.9202 36.806 30.951 36.6933 30.8812 36.5899V35.979C30.956 35.5671 30.9573 35.1545 30.8818 34.7427C30.8818 34.5621 30.8818 34.3822 30.8818 34.2016C30.9975 33.646 30.8737 33.0773 30.9705 32.5191C30.9925 32.6259 30.9925 32.7333 30.9925 32.8407C30.9931 33.3785 30.9931 33.9162 30.9956 34.454C30.9956 34.516 30.9786 34.597 31.0559 34.6221C31.1163 34.6418 31.1452 34.5845 31.1672 34.5337C31.2087 34.4388 31.2112 34.284 31.3444 34.3011C31.4739 34.3182 31.4337 34.4804 31.4733 34.5746C31.5475 34.7525 31.5581 34.9839 31.6757 35.1124C31.9045 35.3621 31.9629 34.9285 32.1502 34.9305C32.3312 34.9325 32.3715 34.8066 32.3721 34.6438C32.3752 34.0856 32.4054 33.5274 32.4199 32.9706C32.4714 30.9975 32.3778 29.0224 32.4909 27.0499C32.885 26.8674 33.132 26.5919 33.1289 26.1003C33.1194 24.6294 33.1307 23.1584 33.1251 21.6875C33.1232 21.1102 32.956 20.8875 32.4312 20.6944C32.4287 19.5767 32.4262 18.4583 32.4236 17.3406C32.4243 16.4839 32.4255 15.6272 32.4262 14.7705C32.4299 12.0948 32.4324 9.41923 32.4406 6.74361C32.4412 6.52745 32.3652 6.4543 32.1647 6.45892C31.7071 6.4688 31.2495 6.46155 30.7913 6.46221C28.7417 6.46419 26.6914 6.46682 24.6417 6.4688H24.6424ZM26.8831 39.0592C27.45 39.0638 27.8812 38.6243 27.8919 38.0298C27.9026 37.4486 27.4111 36.922 26.8624 36.9266C26.2841 36.9313 25.8586 37.3873 25.851 38.0101C25.8441 38.5814 26.3092 39.0546 26.8831 39.0592Z" fill="#01586F"/>
<path d="M24.6424 6.4688C26.692 6.46682 28.7423 6.46419 30.792 6.46221C31.2495 6.46221 31.7077 6.4688 32.1653 6.45892C32.3664 6.4543 32.4419 6.52745 32.4412 6.74361C32.4324 9.41923 32.4306 12.0948 32.4268 14.7705C32.2916 14.7428 32.2546 14.6024 32.2778 14.5207C32.3583 14.2413 32.1817 14.0936 32.0176 13.9889C31.6857 13.7767 31.5424 13.4801 31.4934 13.0913C31.4482 12.7308 31.3287 12.6609 30.9906 12.7288C30.9906 11.8774 30.9906 11.0253 30.9893 10.1738C30.9893 10.0315 30.9824 9.88911 31.0553 9.75994C31.0823 9.70063 31.1081 9.64461 31.1848 9.63604C31.462 9.60639 31.6103 9.40077 31.6876 9.15891C31.8127 8.76482 31.7744 8.3872 31.4789 8.07022C31.1666 7.73544 30.797 7.60231 30.3715 7.76377C29.9698 7.91667 29.7756 8.25408 29.7222 8.69035C29.6719 9.10224 29.9007 9.39221 30.1119 9.69074C30.1106 12.1739 30.1094 14.6578 30.1081 17.1409C30.0189 17.1297 29.9987 17.0632 29.9774 16.9828C29.9214 16.7739 29.8825 16.5524 29.7863 16.3646C29.5613 15.929 29.1106 15.7768 28.741 15.5277C28.6373 15.4578 28.5135 15.5441 28.4852 15.6852C28.4664 15.7801 28.4752 15.8816 28.4752 15.9798C28.4752 17.8428 28.4758 19.7058 28.4708 21.5689C28.4708 21.6981 28.5418 21.8615 28.3752 21.9505C28.3746 19.7678 28.3759 17.5845 28.369 15.4018C28.3683 15.1448 28.4073 14.9688 28.6543 14.8265C29.044 14.6017 29.1113 14.1945 29.0365 13.7648C28.9654 13.3549 28.7052 13.1045 28.3356 13.0056C27.9478 12.9021 27.6147 13.0287 27.3614 13.3667C26.9906 13.8623 27.0735 14.4067 27.5996 14.8884V15.4631C27.6191 15.4624 27.6386 15.4618 27.6587 15.4604V14.9174C27.7555 14.9899 27.7153 15.0973 27.7153 15.1889C27.719 16.764 27.7216 18.3384 27.7197 19.9134C27.7197 20.2845 27.7021 20.6548 27.692 21.0259C27.6361 21.0305 27.6116 20.9949 27.5984 20.9448C27.648 20.7866 27.66 20.6252 27.66 20.4591C27.6568 19.46 27.6575 18.461 27.6593 17.4625C27.66 17.0395 27.5613 16.6803 27.1986 16.4206C26.9786 16.2631 26.78 16.0582 26.687 15.7755C26.6518 15.668 26.5563 15.6614 26.4708 15.6186C26.2005 15.4842 25.8529 15.3504 25.7524 15.0855C25.616 14.727 25.3256 14.7546 25.1345 14.7467C24.7366 14.7309 24.7178 14.7593 24.7014 14.3322C24.6838 13.865 24.7693 13.3931 24.6493 12.9298C24.6468 10.7761 24.6436 8.62181 24.6411 6.46814L24.6424 6.4688ZM26.8353 7.69853C26.2872 7.70051 25.8492 8.18423 25.8586 8.77668C25.8674 9.34212 26.3212 9.78432 26.8906 9.78366C27.4651 9.783 27.9026 9.3184 27.8963 8.7154C27.89 8.14337 27.4249 7.69721 26.8353 7.69919V7.69853Z" fill="#0D92AB"/>
<path d="M15.7216 12.2682C15.7197 10.4802 15.7165 8.69233 15.7172 6.90441C15.7172 6.4978 15.8045 6.42135 16.2068 6.41081C16.8762 6.39301 17.5437 6.45892 18.2118 6.4576C19.8422 6.4543 21.4733 6.42662 23.1037 6.41081C23.2288 6.40949 23.3545 6.41872 23.4796 6.42333C23.4846 6.45826 23.4903 6.49319 23.4959 6.52877C23.4903 6.53734 23.4789 6.54657 23.4802 6.55381C23.4821 6.57293 23.4896 6.59204 23.4947 6.61049C23.4978 8.89267 23.5009 11.1742 23.5028 13.4564C23.5028 13.5434 23.4915 13.631 23.4852 13.718C23.3212 13.8083 23.4004 13.9691 23.3903 14.1002C23.3746 14.294 23.4117 14.493 23.3092 14.6762C23.247 14.7882 23.1785 14.8726 23.0792 14.7382C22.9038 14.5016 22.6964 14.4851 22.4406 14.5648C22.274 14.6169 22.093 14.6215 21.917 14.6373C21.8246 14.6459 21.7197 14.6472 21.6958 14.5134C21.6072 14.0113 21.0258 13.9269 20.8887 13.4663C20.8875 13.4623 20.8693 13.4643 20.8586 13.4636L20.8674 13.4676C20.8485 13.4412 20.829 13.4149 20.8102 13.3878C20.8045 13.3298 20.7844 13.2837 20.726 13.2659L20.7373 13.2765C20.7128 13.2514 20.6889 13.2264 20.6644 13.2013L20.6744 13.2125C20.6587 13.1512 20.6147 13.1302 20.56 13.1236C20.5368 13.1104 20.5135 13.0965 20.4903 13.0834C20.467 13.0168 20.418 12.9997 20.3564 13.0049L20.3658 13.0122C20.0968 12.7796 19.6939 12.8204 19.4991 13.0998C19.4815 13.1097 19.4639 13.119 19.4469 13.1288C19.4211 13.1526 19.3947 13.1756 19.3689 13.1994C19.3495 13.2191 19.3306 13.2382 19.3111 13.258C19.2885 13.2824 19.2659 13.3068 19.2432 13.3312L19.2502 13.3239C19.2294 13.3516 19.2087 13.3793 19.1879 13.4069L19.1999 13.3951C19.1364 13.4162 19.1207 13.4676 19.1238 13.5302L19.1288 13.5223C19.0698 13.5519 19.0578 13.6033 19.0672 13.6653L19.0735 13.66C18.8598 13.7365 18.9485 13.9289 18.9258 14.0791C18.9145 14.1562 18.9566 14.2656 18.8209 14.2729C18.4167 14.2933 17.9843 13.8696 17.9843 13.4491C17.9843 12.3215 17.9849 11.194 17.9824 10.0664C17.9824 9.93919 18.0201 9.80014 17.9139 9.69338C17.9906 9.60639 18.0704 9.52269 18.1427 9.43175C18.5198 8.95462 18.4387 8.21652 17.9755 7.88833C17.4796 7.53641 16.7599 7.71632 16.44 8.27122C16.1791 8.72396 16.3909 9.47524 16.9164 9.64527C17.2621 9.7573 17.2269 9.94578 17.2269 10.1909C17.2269 11.706 17.23 13.2211 17.2288 14.7362C17.2275 16.679 17.2231 18.6218 17.22 20.5645C17.1414 20.4591 17.1697 20.3345 17.1691 20.2179C17.1659 19.3691 17.1659 18.5203 17.1647 17.6721C17.1653 16.9274 17.1722 16.1821 17.1647 15.4374C17.1615 15.1461 17.2627 14.8179 16.951 14.6031C16.9158 14.5787 16.9265 14.4805 16.917 14.4159C16.8517 13.9579 16.6757 13.5467 16.3733 13.2152C16.2483 13.0781 16.164 12.9542 16.1615 12.7664C16.1584 12.4652 15.9793 12.3281 15.7247 12.2662L15.7216 12.2682ZM21.2162 9.76982C21.7926 9.77905 22.2621 9.33817 22.2382 8.77273C22.2137 8.20004 21.9013 7.72094 21.2784 7.72159C20.6449 7.72225 20.2338 8.11042 20.2168 8.74637C20.2011 9.32499 20.6266 9.75994 21.2162 9.76916V9.76982Z" fill="#0D92AB"/>
<path d="M23.4846 32.6813C23.3514 32.7551 23.3866 32.8882 23.3872 33.0035C23.3897 33.5624 23.3922 34.1212 23.3199 34.6761C23.3086 34.7618 23.2923 34.8514 23.2558 34.9265C23.1873 35.0689 23.0861 35.0735 23.0427 34.9186C22.9503 34.5885 22.7341 34.5067 22.4406 34.5338C22.3809 34.539 22.3023 34.5338 22.2596 34.4975C21.8793 34.1779 21.494 34.4731 21.1125 34.481C20.9591 34.4843 21.0101 34.7137 20.8284 34.7684C20.8146 34.4758 21.0327 34.2108 20.9045 33.9321L20.9126 33.9387C21.1842 33.683 21.1194 33.0879 20.7989 32.8941L20.8058 32.8994C20.8045 32.8381 20.7907 32.7854 20.7272 32.765L20.7454 32.7663C20.7128 32.7419 20.6801 32.7182 20.6468 32.6938C20.5481 32.6641 20.4821 32.5897 20.4186 32.5112C20.4086 32.4868 20.3991 32.4625 20.3891 32.4381C20.3935 30.5217 20.3979 28.6046 20.4035 26.6881C20.4035 26.6466 20.4243 26.6051 20.4349 26.5636C20.5556 26.5399 20.599 26.6407 20.6499 26.7191C21.1936 27.5436 21.9453 28.0688 22.8378 28.3878C23.0019 28.4464 23.1439 28.565 23.3369 28.5505C23.5016 28.538 23.4965 28.6823 23.4959 28.8069C23.4915 30.0979 23.4877 31.3896 23.4833 32.6806L23.4846 32.6813Z" fill="#05869F"/>
<path d="M20.4192 32.5119C20.4821 32.5903 20.5481 32.6648 20.6474 32.6944C20.6637 32.7439 20.6857 32.7834 20.7461 32.7669L20.7278 32.7656C20.7241 32.8295 20.7536 32.8724 20.8064 32.9001L20.7995 32.8948C20.9755 33.2263 20.9969 33.5769 20.9133 33.9393L20.9051 33.9327C20.4299 34.7664 19.5801 34.7677 19.0591 33.9354L19.061 33.9406C18.9912 33.7291 19.0063 33.507 18.9837 33.2895C18.9912 33.2698 18.9931 33.25 18.9893 33.2289C19.0113 33.2032 19.0333 33.1768 19.0553 33.1511L19.054 33.1287C19.1112 33.0872 19.1395 33.0319 19.1288 32.9574L19.115 32.9666C19.1722 32.9798 19.1842 32.931 19.2036 32.8941C19.3331 32.7696 19.445 32.6206 19.6116 32.5462C19.7278 32.4941 19.7436 32.3992 19.7423 32.2812C19.736 31.6486 19.7348 31.0153 19.7322 30.3826C19.7322 28.4965 19.7322 26.6104 19.7329 24.7243C19.7329 23.0095 19.7322 21.2954 19.7316 19.5806C19.7341 18.1262 19.7373 16.6711 19.7385 15.2166C19.7385 15.1237 19.7549 15.0327 19.6367 14.9721C19.1081 14.7013 18.9579 14.2413 19.0716 13.6613L19.0654 13.6666C19.0861 13.6192 19.1068 13.571 19.1276 13.5236L19.1226 13.5315C19.1477 13.4867 19.1735 13.4412 19.1986 13.3964C19.1986 13.3964 19.1867 13.4083 19.1867 13.4076C19.2074 13.3799 19.2282 13.3522 19.2489 13.3246L19.242 13.3318C19.2646 13.3074 19.2872 13.2831 19.3099 13.2587C19.3293 13.2389 19.3482 13.2198 19.3677 13.2C19.3935 13.1763 19.4199 13.1532 19.4456 13.1295C19.4632 13.1196 19.4808 13.1104 19.4978 13.1005C19.7762 12.9582 20.0679 12.9615 20.3645 13.0129C20.3645 13.0129 20.3551 13.0056 20.3557 13.0056C20.4004 13.032 20.445 13.0577 20.4896 13.084C20.5129 13.0972 20.5361 13.111 20.5594 13.1242C20.5977 13.1539 20.6354 13.1835 20.6738 13.2132L20.6637 13.202C20.6882 13.227 20.7121 13.2521 20.7366 13.2771L20.7253 13.2666C20.7536 13.3074 20.7813 13.3476 20.8095 13.3878C20.8284 13.4142 20.8479 13.4406 20.8667 13.4676L20.8579 13.4636C20.8812 13.546 20.9038 13.629 20.9277 13.7108C21.0566 14.1536 20.9384 14.584 20.5707 14.839C20.4035 14.955 20.3689 15.0776 20.3708 15.268C20.3815 16.4417 20.3721 17.6161 20.3872 18.7898C20.3972 19.5675 20.3696 20.3458 20.4362 21.1221C20.4337 22.8909 20.4312 24.6597 20.428 26.4285C20.3941 26.4759 20.3765 26.5234 20.4331 26.5675L20.4356 26.5636C20.4249 26.6051 20.4041 26.6466 20.4041 26.6881C20.3985 28.6046 20.3941 30.5217 20.3897 32.4381C20.3997 32.4625 20.4092 32.4868 20.4192 32.5112V32.5119Z" fill="#ECF9F9"/>
<path d="M27.6009 14.8897C27.0748 14.408 26.9912 13.8636 27.3627 13.3681C27.616 13.03 27.9491 12.9035 28.3369 13.0069C28.7058 13.1058 28.9661 13.3555 29.0377 13.7661C29.1125 14.1958 29.0453 14.6031 28.6556 14.8278C28.4085 14.9701 28.3696 15.1461 28.3702 15.4031C28.3771 17.5858 28.3752 19.7691 28.3765 21.9518C28.3476 23.1406 28.3495 24.3302 28.3708 25.519C28.3457 25.8644 28.3451 26.2104 28.3727 26.5557C28.3545 26.7138 28.3457 26.872 28.379 27.0295C28.379 28.8016 28.379 30.5737 28.3777 32.3458C28.3777 32.4638 28.3809 32.5712 28.5336 32.5666C28.5776 32.5877 28.6222 32.6101 28.6662 32.6325L28.6593 32.6285C28.6908 32.676 28.731 32.7089 28.7894 32.7089L28.7762 32.6964C28.78 32.7452 28.8052 32.7709 28.8517 32.7742L28.836 32.7715C29.0742 33.1017 29.1527 33.4714 29.0842 33.8774L29.1018 33.8655C29.0528 33.8695 29.0541 33.9083 29.0515 33.9446C29.0434 34.0909 28.8982 34.1377 28.8466 34.253C28.5462 34.5021 28.2118 34.6181 27.8322 34.5061C27.2671 34.3387 27.0377 33.795 27.2256 33.0918L27.2212 33.0964C27.2451 33.0503 27.2696 33.0042 27.2935 32.9574L27.2885 32.9692L27.6015 32.6292L27.5977 32.6318C27.7184 32.6009 27.719 32.504 27.7184 32.4005C27.7102 30.4327 27.704 28.4649 27.697 26.4977C27.7172 24.6748 27.726 22.852 27.6945 21.0292C27.704 20.6581 27.7216 20.2878 27.7222 19.9167C27.7241 18.3417 27.7222 16.7673 27.7178 15.1922C27.7178 15.1006 27.758 14.9925 27.6612 14.9207C27.6417 14.9108 27.6222 14.9009 27.6021 14.8911L27.6009 14.8897Z" fill="#ECF9F9"/>
<path d="M20.4362 21.1227C20.3696 20.3464 20.3972 19.5674 20.3872 18.7905C20.3721 17.6167 20.3809 16.4424 20.3708 15.2687C20.369 15.0782 20.4035 14.9556 20.5707 14.8396C20.9384 14.5846 21.0572 14.1549 20.9277 13.7114C20.9038 13.629 20.8812 13.5467 20.858 13.4643C20.8686 13.4649 20.8869 13.463 20.8881 13.4669C21.0251 13.9276 21.6065 14.0119 21.6952 14.5141C21.7184 14.6472 21.8234 14.6459 21.9164 14.638C22.0918 14.6222 22.2728 14.6176 22.44 14.5655C22.6958 14.4858 22.9032 14.5022 23.0786 14.7388C23.1779 14.8733 23.2464 14.7889 23.3086 14.6769C23.4111 14.4937 23.374 14.2953 23.3897 14.1009C23.4004 13.9697 23.3212 13.8089 23.4846 13.7187C23.489 15.1336 23.4959 16.5491 23.4965 17.964C23.4965 18.9295 23.4896 18.9223 22.6392 19.3052C21.8209 19.6735 21.0666 20.1342 20.6034 20.9804C20.5657 21.0489 20.5104 21.0983 20.4368 21.1227H20.4362Z" fill="#098CA6"/>
<path d="M27.225 33.0905C27.1012 33.163 27.0094 33.2671 26.8799 33.0463C26.7725 32.8618 26.616 32.9528 26.5418 33.1465C26.4236 33.4549 26.3099 33.505 26.0358 33.3297C25.8353 33.2019 25.6838 33.2006 25.5123 33.3864C25.3639 33.5472 25.1358 33.5993 24.9956 33.7924C24.8919 33.9354 24.78 33.8273 24.7366 33.7087C24.7008 33.6111 24.7077 33.4945 24.7071 33.3864C24.7052 32.2496 24.7065 31.1121 24.704 29.9753C24.704 29.8475 24.7366 29.7111 24.6518 29.5944C24.653 29.2689 24.6543 28.9433 24.6549 28.6177C24.692 28.592 24.7297 28.5663 24.7668 28.5406C25.8297 28.248 26.792 27.7834 27.4557 26.8087C27.6556 26.8766 27.5971 27.0546 27.5971 27.1976C27.5996 29.0085 27.5971 30.8202 27.5971 32.6312L27.6009 32.6285C27.3595 32.6028 27.2502 32.7116 27.2879 32.9686L27.2929 32.9567C27.2344 32.9837 27.2288 33.0398 27.2206 33.0958L27.225 33.0912V33.0905Z" fill="#05869F"/>
<path d="M24.6505 12.9305C24.7706 13.3938 24.6851 13.8656 24.7027 14.3329C24.7184 14.7599 24.7379 14.7316 25.1358 14.7474C25.3262 14.7553 25.6172 14.7276 25.7536 15.0861C25.8542 15.351 26.2018 15.4848 26.472 15.6193C26.5575 15.6614 26.6524 15.6687 26.6883 15.7761C26.7813 16.0588 26.9799 16.2644 27.1999 16.4213C27.5625 16.6809 27.6612 17.0401 27.6606 17.4632C27.6587 18.4623 27.6587 19.4613 27.6612 20.4598C27.6612 20.6258 27.6493 20.7879 27.5996 20.9455C27.3086 20.5764 27.005 20.2278 26.6248 19.949C26.0949 19.5609 25.533 19.2603 24.9013 19.1114C24.7486 19.0752 24.6373 19.031 24.6386 18.8201C24.648 16.8569 24.648 14.893 24.6512 12.9298L24.6505 12.9305Z" fill="#098CA6"/>
<path d="M24.6587 27.6833C24.6487 27.6127 24.6468 27.5903 24.6424 27.5692C24.5531 27.0895 24.6945 26.7507 25.1628 26.5906C25.2734 26.5524 25.3551 26.4219 25.4657 26.3843C26.0767 26.1748 26.1955 25.7339 26.1615 25.0999C26.1037 24.0165 26.1427 22.9278 26.1395 21.8411C26.1395 21.7073 26.1301 21.6203 25.9824 21.5142C25.6619 21.2842 25.3212 21.0964 24.9767 20.9224C24.7128 20.7893 24.5908 20.6271 24.6373 20.3214C24.6562 20.1975 24.6405 20.0676 24.6405 19.9035C25.3708 20.2785 26.0603 20.6383 26.7065 21.0838C26.8058 21.1524 26.8536 21.2407 26.8523 21.3778C26.841 22.9462 26.8316 24.514 26.836 26.0825C26.836 26.3085 26.7687 26.4443 26.5933 26.5649C25.9818 26.9854 25.3501 27.3643 24.6581 27.6833H24.6587Z" fill="#ECF9F9"/>
<path d="M23.4965 27.6964C22.7517 27.3465 22.0855 26.9649 21.4626 26.5003C21.3482 26.4153 21.3036 26.3257 21.3036 26.1767C21.3099 24.5753 21.3086 22.9746 21.3099 21.3732C21.3099 21.2657 21.2948 21.1623 21.4161 21.0918C22.0892 20.6996 22.7574 20.2996 23.4745 19.8745C23.4745 20.1447 23.4683 20.3701 23.4771 20.5949C23.4827 20.7464 23.3947 20.8024 23.2879 20.8611C22.9277 21.0601 22.5745 21.273 22.2093 21.4615C22.017 21.561 21.9428 21.6842 21.9472 21.9175C21.9698 23.1894 21.9793 24.4613 21.9793 25.7332C21.9793 25.9303 22.0478 26.0298 22.2018 26.1148C22.5343 26.2987 22.8491 26.5201 23.1911 26.6802C23.4419 26.7975 23.5405 26.9504 23.5003 27.2305C23.4808 27.3682 23.4972 27.5112 23.4972 27.6958L23.4965 27.6964Z" fill="#ECF9F9"/>
<path d="M24.6543 21.7468C24.851 21.8701 25.0157 21.9801 25.1867 22.0776C25.2992 22.1422 25.3073 22.2417 25.3067 22.3558C25.3061 23.3522 25.3036 24.3486 25.3117 25.3451C25.313 25.5019 25.264 25.5869 25.1301 25.6377C24.9749 25.6963 24.8221 25.7616 24.6543 25.8294V21.7475V21.7468Z" fill="#ECF9F9"/>
<path d="M23.5034 21.7824C23.5034 23.1077 23.5016 24.402 23.506 25.697C23.506 25.8696 23.4607 25.8742 23.3249 25.8083C22.9692 25.6344 22.7643 25.4215 22.8033 24.9398C22.8617 24.2201 22.819 23.4919 22.8183 22.767C22.8183 22.3083 23.0467 21.9801 23.5034 21.7824Z" fill="#ECF9F9"/>
<path d="M27.5965 32.6305C27.5971 30.8195 27.599 29.0079 27.5965 27.1969C27.5965 27.0539 27.6549 26.876 27.4551 26.8081C27.4758 26.6539 27.5343 26.532 27.6952 26.4964C27.7021 28.4642 27.7084 30.432 27.7165 32.3992C27.7165 32.5027 27.7165 32.5995 27.5959 32.6305H27.5965Z" fill="#01586F"/>
<path d="M24.7668 28.54C24.7297 28.5657 24.692 28.5914 24.6549 28.6171C24.6681 28.5531 24.7128 28.5393 24.7668 28.54Z" fill="#01586F"/>
<path d="M20.4331 26.5682C20.3765 26.524 20.3941 26.4766 20.428 26.4291C20.4576 26.4746 20.462 26.5208 20.4331 26.5682Z" fill="#0D92AB"/>
<path d="M23.4938 6.61049C23.4886 6.59138 23.4809 6.57293 23.4789 6.55382C23.4783 6.54591 23.4893 6.53668 23.4951 6.52877C23.4951 6.55645 23.4938 6.58347 23.4931 6.61115L23.4938 6.61049Z" fill="#01586F"/>
<path d="M19.0534 33.1287L19.0547 33.1511C19.0327 33.1768 19.0107 33.2032 18.9887 33.2289C18.9925 33.2493 18.9906 33.2698 18.983 33.2895C18.9202 33.5182 18.8077 33.7535 19.0603 33.9406L19.0585 33.9354C19.0497 33.9894 19.0566 34.0546 19.0289 34.0948C18.9114 34.2655 18.9466 34.6043 18.648 34.5753C18.2062 34.5331 17.9843 34.2781 17.9837 33.8853C17.9824 32.6167 17.9837 31.3474 17.978 30.0788C17.978 29.9588 18.0377 29.8073 17.8793 29.7321C17.873 29.601 17.8617 29.4705 17.8617 29.3394C17.8617 26.6875 17.8617 24.0356 17.8636 21.3837C17.8636 20.7814 17.8693 20.179 17.8724 19.5767C17.9749 19.0106 17.8869 18.4379 17.9221 17.8698C18.071 18.2118 17.9038 18.5928 18.027 18.9724C18.1674 18.6336 18.4106 18.5192 18.7568 18.629C18.8221 18.6501 18.8787 18.6481 18.9334 18.6086C19.1119 18.4781 19.1508 18.5624 19.181 18.7529C19.2376 19.1127 19.2885 19.495 19.7304 19.5813C19.7304 21.2961 19.731 23.0102 19.7316 24.7249C19.6562 24.8192 19.6794 24.9332 19.6794 25.0406C19.6782 26.7165 19.6782 28.3924 19.6794 30.0676C19.6794 30.175 19.6568 30.2884 19.731 30.3833C19.7341 31.0159 19.7348 31.6492 19.741 32.2819C19.7423 32.3998 19.7266 32.4947 19.6103 32.5468C19.4431 32.6213 19.3319 32.7702 19.2024 32.8948C19.1728 32.9192 19.1433 32.9429 19.1138 32.9673L19.1276 32.958C19.0647 32.9969 19.0553 33.0615 19.0528 33.1294L19.0534 33.1287ZM19.6059 19.6973C19.5437 19.8917 19.5223 20.0123 19.6524 20.1922C19.675 20.0011 19.7021 19.8831 19.6059 19.6973Z" fill="#05869F"/>
<path d="M17.8737 19.576C17.8705 20.1784 17.8655 20.7807 17.8649 21.383C17.863 24.0349 17.8624 26.6868 17.863 29.3387C17.863 29.4698 17.8743 29.6003 17.8806 29.7315C17.8869 32.1428 17.8429 34.5548 17.9082 36.9662C17.9032 36.9734 17.8919 36.9833 17.8938 36.9879C17.8994 37.0037 17.9095 37.0182 17.9183 37.0327C18.1791 37.3082 18.3891 37.5975 18.3652 38.0265C18.34 38.4839 18.105 38.8727 17.714 39.0118C17.2954 39.16 16.8284 39.0091 16.5519 38.6658C16.0585 38.0542 16.4375 37.239 16.8894 37.0749C17.2244 36.953 17.2445 36.7533 17.2212 36.4719C17.2168 36.4172 17.2143 36.3625 17.2112 36.3085C17.2112 36.2268 17.2112 36.1444 17.2112 36.062C17.2112 35.749 17.2118 35.4353 17.2124 35.1222C17.2124 34.8863 17.2124 34.6497 17.2124 34.4131C17.2124 33.3007 17.2124 32.1883 17.2124 31.0759C17.2194 29.9483 17.2319 28.8214 17.2319 27.6938C17.2313 25.3174 17.2231 22.9416 17.2181 20.5652C17.2212 18.6224 17.2256 16.6796 17.2269 14.7368C17.2282 13.2218 17.2256 11.7067 17.225 10.1916C17.225 9.94578 17.2602 9.7573 16.9145 9.64593C16.3891 9.4759 16.1779 8.72462 16.4381 8.27188C16.758 7.71633 17.4777 7.53707 17.9736 7.88899C18.4368 8.21718 18.5173 8.95594 18.1408 9.43241C18.0691 9.52335 17.9887 9.60705 17.912 9.69404C17.9026 9.72501 17.885 9.75599 17.885 9.7863C17.8825 11.3383 17.8812 12.8896 17.8793 14.4416C17.8781 15.0584 17.8762 15.6746 17.8749 16.2915C17.8749 16.4193 17.8749 16.5472 17.8743 16.6757C17.8743 16.7238 17.8743 16.7719 17.8743 16.82V19.5754L17.8737 19.576ZM17.0358 8.72924C17.0497 8.96714 17.1659 9.12728 17.3771 9.13519C17.6059 9.14376 17.7084 8.95264 17.7058 8.73912C17.7033 8.53087 17.577 8.39314 17.3664 8.38787C17.1471 8.38259 17.0547 8.5256 17.0358 8.72858V8.72924ZM17.3564 38.3738C17.5644 38.3646 17.7014 38.2513 17.714 38.0397C17.7278 37.8064 17.6185 37.6291 17.3759 37.6193C17.1521 37.61 17.0239 37.7537 17.0182 37.9824C17.0119 38.2117 17.1395 38.3415 17.3564 38.3738Z" fill="#ECF9F9"/>
<path d="M17.2168 20.5659C17.2219 22.9423 17.2294 25.318 17.2307 27.6945C17.2307 28.822 17.2181 29.949 17.2112 31.0765C17.0742 31.1754 17.1024 31.327 17.1018 31.466C17.0999 32.4315 17.0999 33.3969 17.0987 34.3624C17.0987 34.7855 17.0107 34.8626 16.6279 34.7183C16.4551 34.653 16.2866 34.4916 16.2451 34.3196C16.1395 33.88 15.9598 33.48 15.7624 33.0846C15.7109 32.9804 15.7241 32.8704 15.7241 32.7623C15.7228 30.8538 15.7234 28.9446 15.7234 27.0354C16.3055 26.9722 16.6153 26.6334 16.6662 26.0133C16.7662 24.8 16.6996 23.5848 16.7077 22.3702C16.7096 22.1086 16.7008 21.8437 16.665 21.5854C16.5845 21.0048 16.2766 20.7234 15.7222 20.693C15.7222 19.5536 15.7216 18.4142 15.7209 17.2747C16.0704 17.3169 16.4324 17.305 16.5097 17.8243C16.5255 17.9285 16.4953 18.2613 16.8033 18.2237C17.1043 18.1868 17.1031 17.9522 17.1251 17.7248C17.127 17.7064 17.1483 17.6899 17.1603 17.6728C17.1615 18.5216 17.1615 19.3704 17.1647 20.2186C17.1647 20.3359 17.137 20.4598 17.2156 20.5652L17.2168 20.5659Z" fill="#05869F"/>
<path d="M15.7228 20.6937C16.2772 20.724 16.5852 21.0048 16.6656 21.586C16.7014 21.8444 16.7102 22.1093 16.7084 22.3709C16.7002 23.5855 16.7668 24.8007 16.6669 26.014C16.616 26.6341 16.3055 26.9728 15.7241 27.0361C15.1326 26.9043 14.9365 26.6077 15.0371 25.8683C15.0949 25.4413 15.0779 25.0175 15.093 24.5925C15.1125 24.0474 15.0698 23.5024 15.1452 22.9548C15.1936 22.6049 15.1735 22.2444 15.0691 21.8846C14.9151 21.3547 15.0804 20.8538 15.7222 20.6937H15.7228ZM15.2112 23.8524C15.2074 23.8524 15.2036 23.8524 15.1999 23.8524C15.1999 24.4659 15.2068 25.0801 15.1967 25.6937C15.1923 25.9388 15.2552 26.1194 15.5085 26.124C15.7693 26.1286 15.7901 25.9151 15.7901 25.7062C15.7894 24.4679 15.7869 23.2289 15.7876 21.9907C15.7876 21.7791 15.7335 21.6176 15.4984 21.6104C15.2558 21.6032 15.208 21.7666 15.2093 21.9788C15.2124 22.6035 15.2106 23.2283 15.2106 23.853L15.2112 23.8524Z" fill="#041F33"/>
<path d="M17.1615 17.6734C17.149 17.6906 17.1276 17.707 17.1263 17.7255C17.1043 17.9528 17.1056 18.1881 16.8045 18.2244C16.4959 18.2619 16.5261 17.9298 16.511 17.825C16.4331 17.305 16.071 17.3176 15.7222 17.2754C15.7222 15.6061 15.7222 13.9368 15.7222 12.2682C15.9774 12.3301 16.1559 12.4672 16.159 12.7684C16.1609 12.9562 16.2451 13.0801 16.3708 13.2171C16.6738 13.5486 16.8491 13.9599 16.9145 14.4179C16.9239 14.4825 16.9133 14.5807 16.9485 14.605C17.2602 14.8192 17.159 15.1474 17.1622 15.4394C17.1703 16.184 17.1634 16.9294 17.1622 17.6741L17.1615 17.6734Z" fill="#098CA6"/>
<path d="M22.2546 38.0002C22.2514 38.6032 21.8014 39.0559 21.2068 39.0553C20.6279 39.0546 20.1961 38.586 20.1961 37.9593C20.1961 37.44 20.7121 36.9359 21.2451 36.9345C21.797 36.9326 22.2577 37.4189 22.2546 38.0002ZM21.5908 38.0094C21.5808 37.7748 21.4582 37.6166 21.2338 37.6067C21.0277 37.5975 20.9183 37.7517 20.9133 37.9646C20.9082 38.1867 20.9987 38.3528 21.2263 38.3686C21.45 38.3837 21.565 38.2447 21.5902 38.0094H21.5908Z" fill="#ECF9F9"/>
<path d="M17.2112 34.4138C17.2112 34.6504 17.2112 34.8863 17.2112 35.1229C17.1402 34.8863 17.1383 34.6504 17.2112 34.4138Z" fill="#05869F"/>
<path d="M17.2099 36.062C17.2099 36.1444 17.2099 36.2261 17.2099 36.3085C17.1483 36.2261 17.1483 36.1444 17.2099 36.062Z" fill="#05869F"/>
<path d="M17.9155 37.0327C17.9075 37.0176 17.8983 37.0037 17.8931 36.9879C17.8914 36.9833 17.9017 36.9734 17.9063 36.9662C17.9092 36.9886 17.912 37.0103 17.9155 37.0327Z" fill="#0D92AB"/>
<path d="M28.8454 34.2517C28.8969 34.137 29.0415 34.0902 29.0503 33.9433C29.0673 33.9169 29.0842 33.8905 29.1006 33.8642L29.083 33.876C29.2621 33.6493 29.1823 32.9402 28.9547 32.7775C28.9265 32.757 28.8756 32.7722 28.8347 32.7709L28.8504 32.7735C28.8253 32.7478 28.8001 32.7214 28.775 32.6957L28.7882 32.7083C28.7643 32.647 28.7128 32.6351 28.6587 32.6279L28.6656 32.6318C28.6216 32.6094 28.5776 32.587 28.533 32.5646V32.5653C28.462 32.2094 28.4783 31.8476 28.4777 31.4878C28.4758 30.119 28.4758 28.7495 28.4701 27.3808C28.4701 27.2595 28.5286 27.1106 28.3778 27.0282C28.3451 26.8707 28.3532 26.7125 28.3715 26.5544C28.4368 26.209 28.4381 25.863 28.3696 25.5177C28.3482 24.3289 28.3463 23.1393 28.3752 21.9505C28.5418 21.8615 28.4701 21.6981 28.4708 21.5689C28.4758 19.7058 28.4745 17.8428 28.4752 15.9798C28.4752 15.8816 28.467 15.7801 28.4852 15.6852C28.5129 15.5435 28.6367 15.4572 28.741 15.5277C29.1106 15.7761 29.5613 15.929 29.7863 16.3646C29.8831 16.5524 29.9214 16.7739 29.9774 16.9828C29.9987 17.0625 30.0189 17.1297 30.1081 17.1409C30.1094 18.8794 30.1106 20.6179 30.1119 22.3564C30.11 26.5069 30.1087 30.6574 30.105 34.8072C30.105 34.9193 30.154 35.0781 29.9994 35.1137C29.8385 35.1506 29.6191 35.1914 29.5336 35.026C29.4086 34.7848 29.2307 34.7987 29.0327 34.8006C28.8416 34.8026 28.6336 34.8211 28.8184 34.5074C28.8573 34.4415 28.8378 34.3374 28.8454 34.251V34.2517Z" fill="#05869F"/>
<path d="M30.1125 9.69074C29.9013 9.39221 29.6725 9.10224 29.7228 8.69035C29.7762 8.25408 29.9705 7.91666 30.3721 7.76377C30.797 7.60231 31.1672 7.73544 31.4796 8.07022C31.775 8.3872 31.8133 8.76482 31.6882 9.15891C31.6116 9.40077 31.4626 9.60639 31.1854 9.63604C31.1081 9.64461 31.083 9.70063 31.0559 9.75994C30.8051 9.79882 30.9371 9.99587 30.917 10.1296C30.9063 10.16 30.8862 10.1903 30.8862 10.2206C30.8699 11.6019 30.8561 12.9839 30.89 14.3652C30.89 14.7454 30.89 15.1257 30.89 15.5059C30.8623 16.7073 30.8548 17.9087 30.89 19.1101C30.89 20.1269 30.8894 21.1438 30.8887 22.1607C30.8561 23.2079 30.863 24.2557 30.8837 25.3035C30.8793 25.4017 30.8705 25.4999 30.8705 25.5981C30.868 28.368 30.8661 31.1385 30.8649 33.9083C30.8649 34.0065 30.8755 34.1041 30.8812 34.2022C30.8812 34.3828 30.8812 34.5627 30.8812 34.7433C30.8548 35.1552 30.8554 35.5677 30.8812 35.9796C30.8812 36.1833 30.8812 36.3869 30.8806 36.5905C30.868 36.7012 30.8297 36.8146 30.9063 36.9174C30.9334 36.9774 30.9912 36.9675 31.039 36.9846C31.533 37.1599 31.7945 37.5534 31.7655 38.072C31.7373 38.5755 31.4456 38.9366 30.9811 39.0427C30.5342 39.1449 30.0339 38.8958 29.8108 38.472C29.5468 37.9718 29.643 37.643 30.0465 37.1902C30.1427 37.0822 30.2162 37.0004 30.2156 36.835C30.203 32.0499 30.1967 27.2654 30.1892 22.4803C30.1892 22.4368 30.181 22.3933 30.1766 22.3498C30.1854 22.2964 30.2018 22.243 30.2024 22.1897C30.2043 18.1057 30.2043 14.0225 30.2024 9.93853C30.2024 9.8489 30.2451 9.7316 30.1119 9.6914L30.1125 9.69074ZM31.1144 37.9969C31.0823 37.7721 30.9761 37.614 30.7536 37.6153C30.5248 37.6166 30.4217 37.7847 30.4173 38.0068C30.4129 38.2433 30.5437 38.3817 30.7655 38.3784C30.9899 38.3751 31.0936 38.2176 31.1144 37.9969ZM30.7706 9.12003C30.9717 9.10356 31.1068 8.9902 31.1012 8.77009C31.0955 8.54339 30.9573 8.39709 30.7404 8.39643C30.538 8.39643 30.3997 8.52889 30.3997 8.74835C30.3997 8.98427 30.5474 9.09697 30.7699 9.12003H30.7706Z" fill="#ECF9F9"/>
<path d="M30.8894 15.5053C30.8894 15.125 30.8894 14.7447 30.8894 14.3645C30.9019 14.3124 30.9252 14.2597 30.9252 14.2076C30.9239 12.8481 30.9195 11.4885 30.9158 10.129C30.9359 9.99521 30.8039 9.79816 31.0547 9.75928C30.9811 9.88844 30.9881 10.0308 30.9887 10.1731C30.9899 11.0246 30.9899 11.8767 30.9899 12.7282C30.9899 13.6804 30.9874 14.6334 30.9925 15.5857C30.9925 15.6799 30.9277 15.8249 31.0842 15.8559C31.516 15.9415 31.5826 16.2974 31.6128 16.6585C31.6556 17.1587 31.9497 17.4197 32.423 17.34C32.4255 18.4577 32.428 19.576 32.4305 20.6937C31.6367 20.7965 31.4287 21.039 31.4261 21.8806C31.4217 23.1934 31.4192 24.5061 31.4205 25.8189C31.4211 26.6268 31.726 26.9722 32.4903 27.0499C32.3771 29.0224 32.4708 30.9974 32.4192 32.9705C32.4048 33.5274 32.374 34.0856 32.3715 34.6438C32.3708 34.8072 32.3306 34.9324 32.1496 34.9305C31.9623 34.9285 31.9038 35.3621 31.675 35.1124C31.5575 34.9838 31.5475 34.7525 31.4727 34.5746C31.4331 34.4804 31.4733 34.3176 31.3438 34.3011C31.2099 34.284 31.208 34.4388 31.1666 34.5337C31.1439 34.5845 31.1156 34.6418 31.0553 34.622C30.978 34.597 30.995 34.5159 30.995 34.454C30.9925 33.9162 30.9925 33.3785 30.9918 32.8407C30.9918 32.7333 30.9918 32.6259 30.9698 32.5191C30.873 33.0773 30.9975 33.646 30.8812 34.2016C30.8755 34.1034 30.8649 34.0059 30.8649 33.9077C30.8661 31.1378 30.8674 28.3673 30.8705 25.5975C30.8705 25.4993 30.8793 25.4011 30.8837 25.3029C30.9793 24.7823 30.9214 24.2557 30.9221 23.7324C30.9233 23.2085 30.9749 22.6826 30.8887 22.16C30.8887 21.1432 30.8894 20.1263 30.89 19.1094C30.9535 18.9974 30.9271 18.8742 30.9271 18.7555C30.929 17.8454 30.9309 16.9347 30.9265 16.0246C30.9258 15.8519 30.9648 15.6733 30.89 15.5059L30.8894 15.5053ZM30.9711 31.8324C30.9711 31.8133 30.9711 31.7935 30.9698 31.7744C30.9698 31.7744 30.9547 31.7744 30.9466 31.7744V31.8324C30.9547 31.8324 30.9623 31.8324 30.9711 31.8324Z" fill="#05869F"/>
<path d="M32.4903 27.0499C31.726 26.9722 31.4217 26.6268 31.4205 25.8189C31.4192 24.5061 31.4224 23.1934 31.4261 21.8806C31.4287 21.039 31.6367 20.7965 32.4305 20.6937C32.9554 20.8875 33.1219 21.1102 33.1244 21.6868C33.1301 23.1578 33.1182 24.6287 33.1282 26.0996C33.1314 26.5913 32.8843 26.8667 32.4903 27.0493V27.0499ZM32.8793 23.8768H32.8718C32.8718 23.2731 32.8699 22.6701 32.8724 22.0664C32.8737 21.8483 32.8781 21.6229 32.5933 21.6176C32.313 21.6124 32.2891 21.8358 32.2885 22.0546C32.2866 23.2724 32.2885 24.4903 32.2885 25.7082C32.2885 25.9224 32.3218 26.124 32.5776 26.124C32.8485 26.124 32.8818 25.9164 32.8799 25.6871C32.8762 25.0834 32.8787 24.4804 32.8787 23.8768H32.8793Z" fill="#041F33"/>
<path d="M32.4236 17.34C31.9503 17.4197 31.6562 17.1587 31.6134 16.6585C31.5827 16.2981 31.5167 15.9415 31.0849 15.8559C30.9283 15.8249 30.9937 15.6799 30.9931 15.5857C30.9887 14.6334 30.9906 13.6804 30.9906 12.7282C31.3294 12.6609 31.4481 12.7301 31.4934 13.0906C31.5424 13.4794 31.6851 13.7767 32.0176 13.9882C32.1816 14.093 32.3583 14.2406 32.2778 14.52C32.2546 14.6011 32.2916 14.7421 32.4268 14.7698C32.4255 15.6265 32.4249 16.4832 32.4236 17.34Z" fill="#098CA6"/>
<path d="M26.8831 39.0586C26.3092 39.054 25.8441 38.5808 25.851 38.0094C25.8586 37.3873 26.2847 36.9306 26.8623 36.926C27.4111 36.9214 27.9019 37.4479 27.8919 38.0292C27.8812 38.623 27.45 39.0632 26.8831 39.0586ZM26.9026 37.6245C26.6776 37.6404 26.5474 37.7708 26.5487 37.9745C26.5506 38.2124 26.7084 38.3521 26.934 38.3501C27.1433 38.3488 27.2552 38.2065 27.2451 37.989C27.2344 37.7596 27.1031 37.6417 26.9019 37.6245H26.9026Z" fill="#ECF9F9"/>
<path d="M30.1125 9.69074C30.2458 9.73094 30.203 9.8489 30.203 9.93787C30.2049 14.0218 30.2043 18.1051 30.203 22.189C30.203 22.2424 30.1867 22.2958 30.1773 22.3492C30.1559 22.3518 30.1339 22.3538 30.1125 22.3564C30.1113 20.6179 30.11 18.8794 30.1087 17.1409C30.11 14.6578 30.1113 12.1739 30.1125 9.69074Z" fill="#098CA6"/>
<path d="M30.8812 35.979C30.8554 35.5664 30.8548 35.1546 30.8812 34.7427C30.9566 35.1552 30.9554 35.5671 30.8812 35.979Z" fill="#05869F"/>
<path d="M30.9064 36.9167C30.8297 36.8133 30.8674 36.7006 30.8806 36.5899C30.9504 36.694 30.9196 36.806 30.9064 36.9167Z" fill="#05869F"/>
<path d="M26.8353 7.69787C27.4243 7.6959 27.89 8.14205 27.8963 8.71408C27.9026 9.31708 27.4657 9.78169 26.8906 9.78235C26.3206 9.78301 25.8674 9.34081 25.8586 8.77537C25.8492 8.18291 26.2879 7.69919 26.8353 7.69721V7.69787ZM26.5217 8.73846C26.5399 8.97044 26.6518 9.11938 26.8705 9.1286C27.0792 9.13717 27.2049 8.99943 27.2081 8.78394C27.2112 8.56514 27.1087 8.39314 26.8837 8.37996C26.6581 8.36678 26.55 8.51967 26.5217 8.73912V8.73846Z" fill="#ECF9F9"/>
<path d="M27.6009 14.8897C27.6204 14.8996 27.6399 14.9095 27.66 14.9194C27.66 15.1006 27.66 15.2812 27.66 15.4624C27.6405 15.4631 27.621 15.4637 27.6009 15.4651V14.8904V14.8897Z" fill="#098CA6"/>
<path d="M17.8787 14.4429C17.8799 12.8909 17.8812 11.3396 17.8843 9.78762C17.8843 9.75664 17.9019 9.72567 17.9114 9.69535C18.0176 9.80277 17.9799 9.94183 17.9799 10.0684C17.9824 11.1959 17.9811 12.3235 17.9818 13.4511C17.9818 13.8716 18.4142 14.2953 18.8184 14.2749C18.9541 14.2676 18.9114 14.1589 18.9233 14.0811C18.9459 13.9309 18.858 13.7384 19.071 13.662C18.9579 14.2419 19.1075 14.7019 19.6361 14.9728C19.7542 15.0334 19.7379 15.1237 19.7379 15.2173C19.7366 16.6717 19.7335 18.1268 19.731 19.5813C19.2891 19.495 19.2388 19.1127 19.1816 18.7529C19.1515 18.5624 19.1131 18.4781 18.934 18.6086C18.8793 18.6481 18.8234 18.6501 18.7574 18.629C18.4117 18.5183 18.1684 18.6327 18.0277 18.9724C17.9045 18.5921 18.071 18.2112 17.9227 17.8698C17.9227 17.7149 17.9227 17.5601 17.9221 17.4052C17.9415 17.3558 17.9774 17.3064 17.9774 17.2569C17.9811 16.3798 17.9799 15.5033 17.9805 14.6261C17.9805 14.5437 17.9629 14.4739 17.8787 14.4442V14.4429Z" fill="#098CA6"/>
<path d="M21.2162 9.76916C20.626 9.75994 20.2011 9.32433 20.2168 8.74637C20.2344 8.11042 20.6449 7.72226 21.2784 7.7216C21.9013 7.72094 22.2137 8.20004 22.2382 8.77273C22.2627 9.33817 21.7926 9.77905 21.2162 9.76982V9.76916ZM21.2715 9.12333C21.4777 9.11146 21.6009 8.99021 21.5908 8.77273C21.5801 8.55789 21.4657 8.38786 21.2439 8.3905C21.0308 8.39314 20.8869 8.54339 20.8944 8.76614C20.9019 8.98691 21.0459 9.11344 21.2722 9.12333H21.2715Z" fill="#ECF9F9"/>
<path d="M20.3639 13.0129C20.0679 12.9614 19.7756 12.9582 19.4972 13.1005C19.6914 12.8211 20.0949 12.7802 20.3639 13.0129Z" fill="#098CA6"/>
<path d="M19.127 13.5243C19.1062 13.5717 19.0855 13.6192 19.0647 13.6673C19.0553 13.6053 19.0679 13.5539 19.127 13.5243Z" fill="#098CA6"/>
<path d="M19.198 13.3971C19.1729 13.4419 19.1471 13.4873 19.1219 13.5322C19.1188 13.4695 19.1345 13.4181 19.198 13.3971Z" fill="#098CA6"/>
<path d="M20.489 13.084C20.4444 13.0577 20.3998 13.032 20.3551 13.0056C20.4167 12.9997 20.4657 13.0175 20.489 13.084Z" fill="#098CA6"/>
<path d="M20.6732 13.2138C20.6348 13.1842 20.5971 13.1545 20.5588 13.1249C20.6135 13.1315 20.6575 13.1526 20.6732 13.2138Z" fill="#098CA6"/>
<path d="M20.8089 13.3885C20.7813 13.3483 20.753 13.3074 20.7247 13.2672C20.7832 13.285 20.8026 13.3312 20.8089 13.3885Z" fill="#098CA6"/>
<path d="M20.9126 33.9393C20.9962 33.5769 20.9749 33.2263 20.7989 32.8948C21.1194 33.0885 21.1842 33.6836 20.9126 33.9393Z" fill="#01586F"/>
<path d="M20.8064 32.9C20.7536 32.8724 20.7241 32.8295 20.7278 32.7656C20.7913 32.786 20.8058 32.8394 20.8064 32.9Z" fill="#01586F"/>
<path d="M20.7454 32.7669C20.6851 32.7841 20.6631 32.7439 20.6468 32.6944C20.6794 32.7188 20.7121 32.7425 20.7454 32.7669Z" fill="#01586F"/>
<path d="M19.7316 30.3833C19.6574 30.2884 19.6801 30.1743 19.6801 30.0676C19.6788 28.3917 19.6788 26.7158 19.6801 25.0406C19.6801 24.9332 19.6574 24.8198 19.7322 24.7249C19.7322 26.611 19.7322 28.4971 19.7316 30.3833Z" fill="#098CA6"/>
<path d="M19.061 33.9406C18.8083 33.7535 18.9202 33.5182 18.9837 33.2895C19.0063 33.507 18.9912 33.7291 19.061 33.9406Z" fill="#01586F"/>
<path d="M19.0534 33.1287C19.0559 33.0608 19.0654 32.9963 19.1282 32.9574C19.1389 33.0312 19.1106 33.0872 19.0534 33.1287Z" fill="#01586F"/>
<path d="M19.1144 32.9673C19.1439 32.9429 19.1735 32.9192 19.203 32.8948C19.1835 32.9323 19.1716 32.9804 19.1144 32.9673Z" fill="#01586F"/>
<path d="M28.3777 27.0295C28.5286 27.1119 28.4695 27.2608 28.4701 27.3821C28.4758 28.7509 28.4758 30.1203 28.4777 31.4891C28.4777 31.8496 28.462 32.2107 28.533 32.5666C28.3796 32.5712 28.3765 32.4638 28.3771 32.3458C28.3784 30.5737 28.3777 28.8016 28.3784 27.0295H28.3777Z" fill="#01586F"/>
<path d="M28.8353 32.7715C28.8762 32.7729 28.9271 32.7584 28.9554 32.7781C29.1829 32.9409 29.2627 33.65 29.0836 33.8767C29.1521 33.4708 29.0735 33.101 28.8353 32.7709V32.7715Z" fill="#01586F"/>
<path d="M28.3702 25.519C28.4387 25.8644 28.4368 26.2103 28.3721 26.5557C28.3451 26.2103 28.3457 25.8644 28.3702 25.519Z" fill="#0D92AB"/>
<path d="M27.2879 32.9679C27.2502 32.7109 27.3595 32.6028 27.6009 32.6279C27.4965 32.7412 27.3922 32.8546 27.2879 32.9679Z" fill="#01586F"/>
<path d="M28.533 32.5659C28.577 32.5883 28.621 32.6107 28.6656 32.6331C28.6216 32.6107 28.5776 32.5883 28.533 32.5659Z" fill="#01586F"/>
<path d="M28.6587 32.6285C28.7134 32.6351 28.7649 32.647 28.7882 32.7089C28.7297 32.7089 28.6901 32.6766 28.6587 32.6285Z" fill="#01586F"/>
<path d="M27.2206 33.0951C27.2281 33.0397 27.2344 32.9831 27.2929 32.9561C27.269 33.0022 27.2445 33.0483 27.2206 33.0951Z" fill="#01586F"/>
<path d="M29.1012 33.8648C29.0842 33.8912 29.0673 33.9176 29.0509 33.9439C29.0534 33.9077 29.0522 33.8688 29.1012 33.8648Z" fill="#01586F"/>
<path d="M28.7756 32.6964C28.8007 32.7221 28.8259 32.7485 28.851 32.7742C28.8051 32.7709 28.7794 32.7452 28.7756 32.6964Z" fill="#01586F"/>
<path d="M17.9221 17.4039C17.9221 17.5588 17.9221 17.7136 17.9227 17.8685C17.8881 18.4366 17.9761 19.0092 17.873 19.5753C17.873 18.6567 17.873 17.7387 17.873 16.82C17.9654 17.0078 17.8963 17.2101 17.9214 17.4032L17.9221 17.4039Z" fill="#0D92AB"/>
<path d="M19.6059 19.6979C19.7021 19.8838 19.6751 20.0017 19.6524 20.1929C19.5223 20.0136 19.5437 19.893 19.6059 19.6979Z" fill="#098CA6"/>
<path d="M17.0352 8.72923C17.0541 8.52625 17.1464 8.38325 17.3658 8.38852C17.5764 8.39313 17.7027 8.53086 17.7052 8.73977C17.7077 8.95264 17.6059 9.14441 17.3765 9.13584C17.1653 9.12794 17.049 8.96779 17.0352 8.72989V8.72923Z" fill="#041F33"/>
<path d="M17.3558 38.3738C17.1389 38.3415 17.0113 38.2117 17.0176 37.9824C17.0233 37.7537 17.1521 37.61 17.3752 37.6193C17.6185 37.6291 17.7272 37.8064 17.7134 38.0397C17.7008 38.2513 17.5644 38.3646 17.3558 38.3738Z" fill="#041F33"/>
<path d="M17.9221 17.4039C17.8963 17.2101 17.9654 17.0078 17.8737 16.8207C17.8737 16.7725 17.8737 16.7244 17.8737 16.6763C17.9415 16.5485 17.9409 16.4206 17.8743 16.2921C17.8756 15.6753 17.8774 15.0591 17.8787 14.4423C17.9629 14.4719 17.9805 14.5418 17.9805 14.6241C17.9805 15.5013 17.9805 16.3778 17.9774 17.2549C17.9774 17.3044 17.9415 17.3538 17.9221 17.4032V17.4039Z" fill="#05869F"/>
<path d="M17.8743 16.2921C17.9409 16.42 17.9409 16.5485 17.8737 16.6763C17.8737 16.5485 17.8737 16.4206 17.8743 16.2921Z" fill="#0D92AB"/>
<path d="M15.2118 23.853C15.2118 23.2283 15.2137 22.6035 15.2106 21.9788C15.2093 21.7666 15.2571 21.6032 15.4997 21.6104C15.7341 21.6176 15.7888 21.7791 15.7888 21.9907C15.7888 23.2289 15.7901 24.4679 15.7913 25.7062C15.7913 25.9158 15.7706 26.1286 15.5097 26.124C15.2558 26.1194 15.1936 25.9388 15.198 25.6937C15.208 25.0801 15.2011 24.4666 15.2011 23.8524C15.2049 23.8524 15.2087 23.8524 15.2124 23.8524L15.2118 23.853Z" fill="#ECF9F9"/>
<path d="M21.5915 38.0094C21.5657 38.2447 21.4507 38.3844 21.2275 38.3686C21 38.3527 20.9095 38.1867 20.9145 37.9646C20.9196 37.7517 21.0283 37.5975 21.2351 37.6067C21.4595 37.6166 21.582 37.7748 21.5921 38.0094H21.5915Z" fill="#041F33"/>
<path d="M31.1144 37.9969C31.0937 38.2177 30.9899 38.3752 30.7656 38.3785C30.5437 38.3818 30.413 38.2434 30.4174 38.0068C30.4218 37.7847 30.5248 37.6166 30.7536 37.6153C30.9761 37.614 31.083 37.7728 31.1144 37.9969Z" fill="#041F33"/>
<path d="M30.7706 9.11937C30.5475 9.09631 30.4004 8.98296 30.4004 8.74769C30.4004 8.52824 30.5387 8.39511 30.741 8.39577C30.9579 8.39577 31.0955 8.54273 31.1018 8.76944C31.1075 8.98955 30.9724 9.1029 30.7712 9.11937H30.7706Z" fill="#041F33"/>
<path d="M30.9164 10.129C30.9202 11.4885 30.9239 12.8481 30.9258 14.2076C30.9258 14.2597 30.9026 14.3124 30.89 14.3645C30.8554 12.9832 30.8699 11.6012 30.8862 10.2199C30.8862 10.1896 30.9063 10.1593 30.917 10.129H30.9164Z" fill="#0D92AB"/>
<path d="M30.8894 15.5053C30.9642 15.6733 30.9246 15.8512 30.9258 16.0239C30.9302 16.934 30.929 17.8448 30.9265 18.7549C30.9265 18.8735 30.9529 18.9967 30.8894 19.1088C30.8542 17.9074 30.8617 16.706 30.8894 15.5046V15.5053Z" fill="#0D92AB"/>
<path d="M30.8881 22.16C30.9749 22.682 30.9227 23.2085 30.9214 23.7324C30.9202 24.2557 30.9786 24.7822 30.8831 25.3029C30.8623 24.255 30.8554 23.2079 30.8881 22.16Z" fill="#0D92AB"/>
<path d="M30.9689 31.8324C30.9615 31.8324 30.954 31.8324 30.9466 31.8324V31.7744C30.954 31.7744 30.9678 31.7744 30.9678 31.7744C30.9689 31.7935 30.9689 31.8133 30.9684 31.8324H30.9689Z" fill="#01586F"/>
<path d="M32.8793 23.8768C32.8793 24.4804 32.8768 25.0834 32.8806 25.6871C32.8818 25.9164 32.8492 26.124 32.5783 26.124C32.3224 26.124 32.2891 25.9224 32.2891 25.7082C32.2891 24.4903 32.2873 23.2724 32.2891 22.0546C32.2891 21.8358 32.3136 21.6124 32.594 21.6177C32.8787 21.6229 32.8743 21.8483 32.873 22.0664C32.8705 22.6701 32.8724 23.2731 32.8724 23.8768H32.88H32.8793Z" fill="#ECF9F9"/>
<path d="M26.902 37.6245C27.1025 37.6417 27.2344 37.7603 27.2451 37.989C27.2552 38.2065 27.1433 38.3488 26.934 38.3501C26.7084 38.3521 26.55 38.2124 26.5487 37.9745C26.5475 37.7708 26.6769 37.6404 26.9026 37.6245H26.902Z" fill="#041F33"/>
<path d="M26.5217 8.73846C26.5506 8.51901 26.6587 8.36612 26.8837 8.3793C27.1087 8.39248 27.2112 8.56448 27.208 8.78327C27.2049 8.99877 27.0792 9.13651 26.8705 9.12794C26.6518 9.11937 26.5399 8.97044 26.5217 8.7378V8.73846Z" fill="#041F33"/>
<path d="M21.2709 9.12333C21.0453 9.11344 20.9007 8.98757 20.8932 8.76614C20.8856 8.54339 21.0295 8.39313 21.2426 8.3905C21.4645 8.38786 21.5795 8.55789 21.5896 8.77273C21.6003 8.9902 21.4764 9.11146 21.2703 9.12333H21.2709Z" fill="#041F33"/>
</g>
<path d="M59.8764 35V8.81818H69.2088C71.2457 8.81818 72.9332 9.18892 74.2713 9.9304C75.6094 10.6719 76.6108 11.6861 77.2756 12.973C77.9403 14.2514 78.2727 15.6918 78.2727 17.294C78.2727 18.9048 77.9361 20.3537 77.2628 21.6406C76.598 22.919 75.5923 23.9332 74.2457 24.6832C72.9077 25.4247 71.2244 25.7955 69.196 25.7955H62.7784V22.446H68.8381C70.125 22.446 71.169 22.2244 71.9702 21.7812C72.7713 21.3295 73.3594 20.7159 73.7344 19.9403C74.1094 19.1648 74.2969 18.2827 74.2969 17.294C74.2969 16.3054 74.1094 15.4276 73.7344 14.6605C73.3594 13.8935 72.767 13.2926 71.9574 12.858C71.1563 12.4233 70.0994 12.206 68.7869 12.206H63.8267V35H59.8764ZM86.4194 8.81818V35H82.5969V8.81818H86.4194ZM97.2763 35.4347C96.032 35.4347 94.907 35.2045 93.9013 34.7443C92.8956 34.2756 92.0987 33.598 91.5107 32.7116C90.9311 31.8253 90.6413 30.7386 90.6413 29.4517C90.6413 28.3437 90.8544 27.4318 91.2805 26.7159C91.7067 26 92.282 25.4332 93.0064 25.0156C93.7308 24.598 94.5405 24.2827 95.4354 24.0696C96.3303 23.8565 97.2422 23.6946 98.1712 23.5838C99.3473 23.4474 100.302 23.3366 101.035 23.2514C101.768 23.1577 102.3 23.0085 102.633 22.804C102.965 22.5994 103.131 22.267 103.131 21.8068V21.7173C103.131 20.6009 102.816 19.7358 102.185 19.1222C101.563 18.5085 100.634 18.2017 99.3984 18.2017C98.1115 18.2017 97.0973 18.4872 96.3558 19.0582C95.6229 19.6207 95.1158 20.2472 94.8345 20.9375L91.2422 20.1193C91.6683 18.9261 92.2905 17.9631 93.1087 17.2301C93.9354 16.4886 94.8857 15.9517 95.9595 15.6193C97.0334 15.2784 98.1626 15.108 99.3473 15.108C100.131 15.108 100.962 15.2017 101.84 15.3892C102.727 15.5682 103.553 15.9006 104.32 16.3864C105.096 16.8722 105.731 17.5668 106.225 18.4702C106.719 19.3651 106.967 20.5284 106.967 21.9602V35H103.234V32.3153H103.08C102.833 32.8097 102.462 33.2955 101.968 33.7727C101.474 34.25 100.839 34.6463 100.063 34.9616C99.2876 35.277 98.3587 35.4347 97.2763 35.4347ZM98.1072 32.3665C99.1641 32.3665 100.067 32.1577 100.817 31.7401C101.576 31.3224 102.151 30.777 102.543 30.1037C102.944 29.4219 103.144 28.6932 103.144 27.9176V25.3864C103.008 25.5227 102.744 25.6506 102.352 25.7699C101.968 25.8807 101.529 25.9787 101.035 26.0639C100.54 26.1406 100.059 26.2131 99.5902 26.2812C99.1214 26.3409 98.7294 26.392 98.4141 26.4347C97.6726 26.5284 96.995 26.6861 96.3814 26.9077C95.7763 27.1293 95.2905 27.4489 94.924 27.8665C94.5661 28.2756 94.3871 28.821 94.3871 29.5028C94.3871 30.4489 94.7365 31.1648 95.4354 31.6506C96.1342 32.1278 97.0249 32.3665 98.1072 32.3665ZM115.574 28.3395L115.548 23.6733H116.213L124.037 15.3636H128.613L119.69 24.8239H119.089L115.574 28.3395ZM112.058 35V8.81818H115.88V35H112.058ZM124.458 35L117.427 25.6676L120.061 22.9957L129.15 35H124.458ZM137.811 35.4347C136.567 35.4347 135.442 35.2045 134.436 34.7443C133.431 34.2756 132.634 33.598 132.046 32.7116C131.466 31.8253 131.176 30.7386 131.176 29.4517C131.176 28.3437 131.39 27.4318 131.816 26.7159C132.242 26 132.817 25.4332 133.542 25.0156C134.266 24.598 135.076 24.2827 135.971 24.0696C136.865 23.8565 137.777 23.6946 138.706 23.5838C139.882 23.4474 140.837 23.3366 141.57 23.2514C142.303 23.1577 142.836 23.0085 143.168 22.804C143.5 22.5994 143.667 22.267 143.667 21.8068V21.7173C143.667 20.6009 143.351 19.7358 142.721 19.1222C142.098 18.5085 141.169 18.2017 139.934 18.2017C138.647 18.2017 137.632 18.4872 136.891 19.0582C136.158 19.6207 135.651 20.2472 135.37 20.9375L131.777 20.1193C132.203 18.9261 132.826 17.9631 133.644 17.2301C134.471 16.4886 135.421 15.9517 136.495 15.6193C137.569 15.2784 138.698 15.108 139.882 15.108C140.667 15.108 141.498 15.2017 142.375 15.3892C143.262 15.5682 144.088 15.9006 144.855 16.3864C145.631 16.8722 146.266 17.5668 146.76 18.4702C147.255 19.3651 147.502 20.5284 147.502 21.9602V35H143.769V32.3153H143.615C143.368 32.8097 142.998 33.2955 142.503 33.7727C142.009 34.25 141.374 34.6463 140.598 34.9616C139.823 35.277 138.894 35.4347 137.811 35.4347ZM138.642 32.3665C139.699 32.3665 140.603 32.1577 141.353 31.7401C142.111 31.3224 142.686 30.777 143.078 30.1037C143.479 29.4219 143.679 28.6932 143.679 27.9176V25.3864C143.543 25.5227 143.279 25.6506 142.887 25.7699C142.503 25.8807 142.064 25.9787 141.57 26.0639C141.076 26.1406 140.594 26.2131 140.125 26.2812C139.657 26.3409 139.265 26.392 138.949 26.4347C138.208 26.5284 137.53 26.6861 136.917 26.9077C136.311 27.1293 135.826 27.4489 135.459 27.8665C135.101 28.2756 134.922 28.821 134.922 29.5028C134.922 30.4489 135.272 31.1648 135.971 31.6506C136.669 32.1278 137.56 32.3665 138.642 32.3665ZM152.593 35V15.3636H156.288V18.483H156.492C156.85 17.4261 157.481 16.5952 158.384 15.9901C159.296 15.3764 160.327 15.0696 161.478 15.0696C161.717 15.0696 161.998 15.0781 162.322 15.0952C162.654 15.1122 162.914 15.1335 163.102 15.1591V18.8153C162.948 18.7727 162.675 18.7259 162.283 18.6747C161.891 18.6151 161.499 18.5852 161.107 18.5852C160.204 18.5852 159.398 18.777 158.691 19.1605C157.992 19.5355 157.438 20.0597 157.029 20.733C156.62 21.3977 156.415 22.1562 156.415 23.0085V35H152.593Z" fill="black"/>
<defs>
<clipPath id="clip0_616_30567">
<rect width="32" height="44" fill="white" transform="translate(8 2)"/>
</clipPath>
</defs>
</svg>
