<?xml version="1.0" encoding="UTF-8" standalone="no"?>
<svg
   viewBox="-29.4461 48.033 633.8922872558594 478.93450927734375"
   version="1.1"
   id="svg6"
   sodipodi:docname="logo.svg"
   inkscape:version="1.4 (e7c3feb1, 2024-10-09)"
   xmlns:inkscape="http://www.inkscape.org/namespaces/inkscape"
   xmlns:sodipodi="http://sodipodi.sourceforge.net/DTD/sodipodi-0.dtd"
   xmlns="http://www.w3.org/2000/svg"
   xmlns:svg="http://www.w3.org/2000/svg">
  <defs
     id="defs6">
    <filter
       inkscape:label="Opacity"
       style="color-interpolation-filters:sRGB;"
       id="filter6"
       x="0"
       y="0"
       width="1"
       height="1">
      <feColorMatrix
         values="1 0 0 0 0 0 1 0 0 0 0 0 1 0 0 0 0 0 5 -1 "
         result="colormatrix"
         id="feColorMatrix6" />
      <feComposite
         in2="colormatrix"
         operator="arithmetic"
         k2="1"
         result="composite"
         id="feComposite6" />
    </filter>
  </defs>
  <sodipodi:namedview
     id="namedview6"
     pagecolor="#ffffff"
     bordercolor="#666666"
     borderopacity="1.0"
     inkscape:showpageshadow="2"
     inkscape:pageopacity="0.0"
     inkscape:pagecheckerboard="0"
     inkscape:deskcolor="#d1d1d1"
     showgrid="false"
     inkscape:zoom="3.9420839"
     inkscape:cx="316.96434"
     inkscape:cy="239.46725"
     inkscape:window-width="3840"
     inkscape:window-height="2107"
     inkscape:window-x="1800"
     inkscape:window-y="25"
     inkscape:window-maximized="1"
     inkscape:current-layer="_8888_2" />
  <svg
     id="_8888_2"
     viewBox="0 0.001249074935913086 125.20000457763672 85.91875457763672"
     height="338.93450927734375"
     width="493.8922559032098"
     y="118.033"
     x="40.5539"
     preserveAspectRatio="xMinYMin"
     style="overflow: visible;"
     version="1.1">
    <path
       id="_8888_1-2"
       class="cls-1"
       d="m72.27,45.96h-35.16c-1.21,0-2.31-.73-2.77-1.85-.46-1.12-.21-2.41.65-3.27l2.94-2.94c.18-.18.35-.38.52-.58h0s0,0,0,0c.16-.2.3-.4.44-.61,0,0,0,0,0,0,.05-.08.09-.15.14-.23,0,0,0,0,0,0,.2-.35.37-.71.51-1.08,0,0,0,0,0,0,.04-.1.08-.2.11-.3.04-.12.07-.24.1-.36,0,0,0,0,0,0,0,0,0,0,0,0,.07-.27.12-.54.16-.82h0s0,0,0,0c.02-.14.03-.27.04-.41,0-.08,0-.17.01-.25h0c0-.09.01-.19.01-.28,0-.03,0-.07,0-.1h0c0-.11,0-.22-.02-.33h0c0-.16-.02-.32-.05-.48h0c-.01-.09-.02-.17-.04-.25-.03-.19-.07-.37-.12-.55h0s0-.03-.01-.05c-.06-.25-.14-.49-.23-.73,0,0,0,0,0,0,0,0,0,0,0,0-.07-.17-.14-.34-.22-.5,0,0,0,0,0,0,0,0,0,0,0,0-.05-.1-.09-.21-.15-.31,0,0,0,0,0,0-.07-.13-.15-.25-.23-.38,0,0,0,0,0,0-.05-.08-.11-.17-.16-.25,0,0,0,0,0,0-.08-.12-.17-.23-.26-.34,0,0,0,0,0,0-.07-.09-.14-.17-.22-.26,0,0,0,0,0,0-.08-.1-.17-.19-.26-.29,0,0,0,0,0,0-.02-.02-.04-.05-.06-.07-.07-.07-.16-.14-.23-.21,0,0-.02-.01-.02-.02-.08-.07-.16-.15-.24-.22,0,0,0,0,0,0-.09-.07-.18-.14-.27-.2-.02-.01-.04-.03-.05-.04,0,0,0,0,0,0-1.35-.99-2.98-1.43-4.58-1.32-.02,0-.04,0-.06,0-.37.03-.74.09-1.1.18-.05.01-.09.02-.14.03-.35.09-.69.21-1.02.35-.05.02-.1.05-.16.07-.33.15-.65.33-.96.54-.04.03-.07.06-.11.08-.32.23-.63.47-.91.76l-19.99,19.99c-1.32,1.32-2.05,3.07-2.05,4.94s.73,3.62,2.05,4.94l19.99,19.99c2.73,2.72,7.16,2.73,9.88,0,1.32-1.32,2.05-3.07,2.05-4.94s-.73-3.62-2.05-4.94l-2.94-2.94c-.86-.86-1.12-2.15-.65-3.27.46-1.12,1.56-1.85,2.77-1.85h35.16c3.85,0,6.99-3.13,6.99-6.99s-3.13-6.99-6.99-6.99Z"
       style="fill: #5CC9E6; fill-opacity: 1;" />
    <path
       id="path1"
       class="cls-3"
       d="m37.1,45.96c-1.55,0-2.9-1.19-3-2.85-.05-.87.32-1.71.94-2.33l2.88-2.88c.18-.18.35-.38.52-.58,0,0,0,0,0,0,.16-.2.3-.4.44-.61,0,0,0,0,0,0,.05-.08.09-.15.14-.23,0,0,0,0,0,0,.2-.35.37-.71.51-1.08,0,0,0,0,0,0,.04-.1.08-.2.11-.3.04-.12.07-.24.1-.36,0,0,0,0,0,0,0,0,0,0,0,0,.07-.27.12-.54.16-.82h0s0,0,0,0c.02-.14.03-.27.04-.41,0-.08,0-.17.01-.25h0c0-.09.01-.19.01-.28,0-.03,0-.07,0-.1,0-.11,0-.22-.02-.33,0-.16-.02-.32-.05-.48h0c-.01-.09-.02-.17-.04-.25-.03-.19-.07-.37-.12-.55h0s0-.03-.01-.05c-.06-.25-.14-.49-.23-.73,0,0,0,0,0,0,0,0,0,0,0,0-.07-.17-.14-.34-.22-.5,0,0,0,0,0,0,0,0,0,0,0,0-.05-.1-.09-.21-.15-.31,0,0,0,0,0,0-.07-.13-.15-.25-.23-.38,0,0,0,0,0,0-.05-.08-.11-.17-.16-.25,0,0,0,0,0,0-.08-.12-.17-.23-.26-.34,0,0,0,0,0,0-.07-.09-.14-.17-.22-.26,0,0,0,0,0,0-.08-.1-.17-.19-.26-.29,0,0,0,0,0,0-.02-.02-.04-.05-.06-.07-.07-.07-.16-.14-.23-.21,0,0-.02-.01-.02-.02-.08-.07-.16-.15-.24-.22,0,0,0,0,0,0-.09-.07-.18-.14-.27-.2-.02-.01-.04-.03-.05-.04,0,0,0,0,0,0-1.35-.99-2.98-1.43-4.58-1.32-.02,0-.04,0-.06,0-.37.03-.74.09-1.1.18-.05.01-.09.02-.14.03-.35.09-.69.21-1.02.35-.05.02-.1.05-.16.07-.33.15-.65.33-.96.54-.04.03-.07.06-.11.08-.32.23-.63.47-.91.76h0c-6.62,6.62-1.93,17.95,7.43,17.95h1.63Z"
       style="fill: #2b9ac1;" />
    <path
       id="path2"
       class="cls-4"
       d="m119.22,32.98c0,1.87-.73,3.62-2.05,4.94l-12.25,12.25-7.75,7.75c-1.32,1.32-3.08,2.05-4.94,2.05s-3.62-.73-4.94-2.05c-1.32-1.32-2.05-3.08-2.05-4.94s.73-3.62,2.05-4.94l2.94-2.94c.86-.86,1.11-2.15.65-3.27-.46-1.12-1.56-1.85-2.77-1.85h-35.16c-3.85,0-6.99-3.13-6.99-6.99s3.13-6.99,6.99-6.99h35.16c1.21,0,2.31-.73,2.77-1.85.46-1.12.21-2.41-.65-3.27l-2.94-2.94c-1.32-1.32-2.05-3.08-2.05-4.94s.73-3.62,2.05-4.94c1.32-1.32,3.08-2.05,4.94-2.05s3.62.73,4.94,2.05l7.75,7.75,12.25,12.25c1.32,1.32,2.05,3.08,2.05,4.94Z"
       style="fill: #67db90;" />
    <path
       id="path3"
       class="cls-2"
       d="m88.12,39.96c1.55,0,2.9,1.19,3,2.85.05.87-.32,1.71-.94,2.33l-2.88,2.88c-.18.18-.35.38-.52.58,0,0,0,0,0,0-.16.2-.3.4-.44.61,0,0,0,0,0,0-.05.08-.09.15-.14.23,0,0,0,0,0,0-.2.35-.37.71-.51,1.08,0,0,0,0,0,0-.04.1-.08.2-.11.3-.04.12-.07.24-.1.36,0,0,0,0,0,0,0,0,0,0,0,0-.07.27-.12.54-.16.82h0s0,0,0,0c-.02.14-.03.27-.04.41,0,.08,0,.17-.01.25h0c0,.09-.01.19-.01.28,0,.03,0,.07,0,.1,0,.11,0,.22.02.33,0,.16.02.32.05.48h0c.01.09.02.17.04.25.03.19.07.37.12.55h0s0,.03.01.05c.06.25.14.49.23.73,0,0,0,0,0,0,0,0,0,0,0,0,.07.17.14.34.22.5,0,0,0,0,0,0,0,0,0,0,0,0,.05.1.09.21.15.31,0,0,0,0,0,0,.07.13.15.25.23.38,0,0,0,0,0,0,.05.08.11.17.16.25,0,0,0,0,0,0,.08.12.17.23.26.34,0,0,0,0,0,0,.07.09.14.17.22.26,0,0,0,0,0,0,.08.1.17.19.26.29,0,0,0,0,0,0,.02.02.04.05.06.07.07.07.16.14.23.21,0,0,.02.01.02.02.08.07.16.15.24.22,0,0,0,0,0,0,.09.07.18.14.27.2.02.01.04.03.05.04,0,0,0,0,0,0,1.35.99,2.98,1.43,4.58,1.32.02,0,.04,0,.06,0,.37-.03.74-.09,1.1-.18.05-.01.09-.02.14-.03.35-.09.69-.21,1.02-.35.05-.02.1-.05.16-.07.33-.15.65-.33.96-.54.04-.03.07-.06.11-.08.32-.23.63-.47.91-.76h0c6.62-6.62,1.93-17.95-7.43-17.95h-1.63Z"
       style="fill: #2abc84;" />
    <path
       id="path4"
       class="cls-5"
       d="m121.42,23.79L101.42,3.8c-5.06-5.06-13.3-5.07-18.37,0-2.45,2.45-3.8,5.71-3.8,9.18,0,2.52.71,4.93,2.05,7.01h-28.34c-4.01,0-7.61,1.83-9.99,4.7-.09-.1-.16-.21-.25-.31-.11-.13-.22-.25-.34-.37-.07-.08-.14-.16-.21-.23-.16-.16-.33-.3-.49-.45-.12-.11-.24-.22-.37-.33-.25-.21-.51-.4-.78-.59-.55-.4-1.12-.77-1.74-1.09-3.67-1.91-8.09-1.79-11.76.11-.13.06-.25.14-.37.21-.21.12-.41.24-.62.36-.15.09-.3.19-.44.29-.19.13-.37.26-.55.4-.13.1-.26.2-.39.31-.27.23-.54.47-.8.72-.02.02-.05.04-.07.06L3.8,43.77c-2.45,2.45-3.8,5.71-3.8,9.18s1.35,6.73,3.8,9.18l19.99,19.99c2.53,2.53,5.86,3.8,9.18,3.8s6.65-1.27,9.18-3.8,3.8-5.71,3.8-9.18c0-2.52-.71-4.93-2.05-7.01h28.34c4.01,0,7.61-1.83,9.99-4.7.08.1.16.2.25.3.11.13.23.26.35.39.07.07.13.15.2.23.15.15.32.29.48.43.13.12.25.24.39.35.24.2.49.39.75.57.56.41,1.14.79,1.76,1.11,1.78.93,3.74,1.38,5.71,1.38,2.07,0,4.13-.5,6.01-1.47,1.18-.6,2.29-1.39,3.28-2.38l19.99-19.99c2.45-2.45,3.8-5.71,3.8-9.18s-1.35-6.73-3.8-9.18Zm-93.38,4.22c2.46-2.47,6.32-2.69,9.05-.7.11.08.23.16.33.25.08.07.16.15.24.22.11.1.22.2.33.31.09.09.17.19.26.29.08.09.15.18.23.27.09.11.17.23.26.34.06.08.11.17.17.26.08.12.16.25.23.38.06.1.1.21.15.31.08.17.15.33.22.5.07.18.13.35.18.54.02.08.04.16.06.24.04.18.08.35.11.53.02.09.03.18.04.27.02.16.03.32.05.48,0,.11.01.22.02.33,0,.13,0,.26,0,.38,0,.13,0,.27-.02.4,0,.09-.02.17-.04.26-.04.28-.09.55-.16.82-.03.11-.05.22-.08.32-.04.12-.08.23-.12.35-.05.13-.09.25-.15.37-.04.1-.09.2-.14.29-.07.14-.14.28-.22.42-.05.08-.09.16-.14.23-.1.16-.22.32-.34.48-.04.05-.07.1-.11.14-.17.21-.34.41-.53.6-1.31,1.3-3.04,2.03-4.88,2.05-.05,0-.1,0-.15,0-1.84-.02-3.56-.75-4.86-2.04-2.72-2.72-2.72-7.16.02-9.9Zm51.21,24.96c-.02,3.84-3.14,6.96-6.99,6.96h-35.16c-1.21,0-2.31.73-2.77,1.85-.46,1.12-.21,2.41.65,3.27l2.94,2.94c1.32,1.32,2.05,3.08,2.05,4.94s-.73,3.62-2.05,4.94c-2.73,2.73-7.16,2.73-9.88,0l-19.99-19.99c-1.32-1.32-2.05-3.07-2.05-4.94s.73-3.62,2.05-4.94l12.25-12.25c.51,2.34,1.67,4.58,3.49,6.4,2.36,2.36,5.48,3.7,8.81,3.79.08,0,.17.01.25.01h.13c.07,0,.15,0,.22-.01h3.77s.09.01.14.01h35.16c3.85,0,6.98,3.13,6.99,6.97,0,.01,0,.02,0,.03,0,0,0,0,0,.01Zm17.93,4.93c-.24.24-.49.45-.76.65-.06.05-.12.09-.19.14-.24.17-.49.32-.75.46-.13.07-.27.13-.4.19-.1.05-.2.09-.31.13-.8.31-1.66.48-2.54.48-1.5,0-2.93-.48-4.12-1.35-.11-.08-.22-.16-.32-.24-.09-.08-.18-.16-.27-.24-.1-.09-.2-.18-.29-.27-.1-.1-.19-.21-.29-.32-.07-.08-.14-.16-.2-.24-.09-.12-.18-.24-.27-.36-.05-.08-.1-.16-.15-.24-.08-.13-.16-.26-.24-.4-.05-.09-.09-.19-.14-.29-.08-.17-.16-.35-.23-.53-.07-.17-.13-.35-.18-.53-.02-.08-.04-.16-.06-.25-.04-.18-.08-.35-.11-.53-.02-.09-.03-.18-.04-.27-.02-.16-.04-.32-.05-.48,0-.11-.01-.22-.02-.33,0-.13,0-.26,0-.39,0-.13,0-.26.02-.39,0-.1.03-.19.04-.29.04-.26.09-.52.15-.77.03-.11.06-.23.09-.34.04-.11.08-.22.12-.34.05-.13.1-.26.15-.38.04-.1.09-.19.14-.29.07-.14.15-.28.23-.42.05-.08.09-.16.14-.23.1-.16.21-.32.33-.47.04-.05.07-.1.12-.16.16-.2.34-.4.52-.59l.02-.02c1.3-1.3,3.03-2.02,4.87-2.04.05,0,.1,0,.15,0,1.84.02,3.56.75,4.86,2.04,2.72,2.72,2.72,7.16-.02,9.9Zm20-19.99l-12.25,12.25c-.51-2.34-1.67-4.58-3.49-6.4-2.36-2.36-5.48-3.7-8.81-3.79-.08,0-.17-.01-.25-.01h-.13s0,0-.01,0h0s-4.13,0-4.13,0h-35.16c-3.85,0-6.99-3.13-6.99-6.99,0,0,0-.01,0-.02,0,0,0,0,0,0,.01-3.84,3.14-6.97,6.99-6.97h35.16c1.21,0,2.31-.73,2.77-1.85.46-1.12.21-2.41-.65-3.27l-2.94-2.94c-1.32-1.32-2.05-3.08-2.05-4.94s.73-3.62,2.05-4.94c1.32-1.32,3.08-2.05,4.94-2.05s3.62.73,4.94,2.05l19.99,19.99c1.32,1.32,2.05,3.08,2.05,4.94s-.73,3.62-2.05,4.94Z"
       style="fill:#06061d;stroke-width:1.00004414;stroke-dasharray:none;opacity:1" />
  </svg>
  <svg
     y="408.657"
     viewBox="4.28000020980835 19.84000015258789 287.9231872558594 48.310001373291016"
     x="246.523"
     height="48.310001373291016"
     width="287.9231872558594"
     style="overflow:visible;fill:#ffffff"
     version="1.1"
     id="svg5">
    <g
       fill="#000"
       style="fill:#ffffff"
       id="g5">
      <path
         d="M10.42 68.15L10.42 68.15Q7.48 68.15 5.88 66.52Q4.28 64.88 4.28 61.94L4.28 61.94L4.28 26.66Q4.28 23.65 5.91 22.05Q7.55 20.45 10.49 20.45L10.49 20.45L26.93 20.45Q34.95 20.45 39.32 24.56Q43.70 28.66 43.70 35.88L43.70 35.88Q43.70 43.10 39.32 47.21Q34.95 51.32 26.93 51.32L26.93 51.32L16.57 51.32L16.57 61.94Q16.57 64.88 15.03 66.52Q13.50 68.15 10.42 68.15ZM16.57 29.87L16.57 41.89L24.79 41.89Q28.26 41.89 30.13 40.39Q32.01 38.89 32.01 35.88L32.01 35.88Q32.01 32.81 30.13 31.34Q28.26 29.87 24.79 29.87L24.79 29.87L16.57 29.87ZM81.38 67.55L59.00 67.55Q56.06 67.55 54.42 65.92Q52.79 64.28 52.79 61.34L52.79 61.34L52.79 26.59Q52.79 23.59 54.39 21.98Q55.99 20.38 58.93 20.38L58.93 20.38Q61.94 20.38 63.51 21.98Q65.08 23.59 65.08 26.59L65.08 26.59L65.08 57.33L81.38 57.33Q83.92 57.33 85.29 58.63Q86.66 59.94 86.66 62.41L86.66 62.41Q86.66 64.88 85.29 66.22Q83.92 67.55 81.38 67.55L81.38 67.55ZM96.82 68.15L96.82 68.15Q94.75 68.15 93.34 67.19Q91.94 66.22 91.61 64.51Q91.27 62.81 92.21 60.67L92.21 60.67L108.85 24.86Q110.05 22.25 111.82 21.05Q113.59 19.84 115.86 19.84L115.86 19.84Q118.13 19.84 119.84 21.05Q121.54 22.25 122.81 24.86L122.81 24.86L139.45 60.67Q140.52 62.81 140.22 64.55Q139.92 66.28 138.55 67.22Q137.18 68.15 135.17 68.15L135.17 68.15Q132.50 68.15 131.06 66.95Q129.63 65.75 128.49 63.08L128.49 63.08L124.88 54.59L129.56 58.00L102.03 58.00L106.78 54.59L103.17 63.08Q101.96 65.75 100.69 66.95Q99.43 68.15 96.82 68.15ZM115.86 33.28L115.73 33.28L107.98 51.78L106.11 48.58L125.55 48.58L123.68 51.78L115.86 33.28ZM155.08 68.15L155.08 68.15Q152.14 68.15 150.54 66.52Q148.94 64.88 148.94 61.94L148.94 61.94L148.94 26.06Q148.94 22.99 150.54 21.42Q152.14 19.84 155.08 19.84L155.08 19.84Q158.09 19.84 159.66 21.42Q161.23 22.99 161.23 26.06L161.23 26.06L161.23 40.63L161.37 40.63L177.60 22.72Q178.87 21.38 180.31 20.61Q181.75 19.84 183.55 19.84L183.55 19.84Q186.36 19.84 187.59 21.28Q188.83 22.72 188.73 24.62Q188.63 26.53 187.16 28.13L187.16 28.13L170.99 45.30L170.99 40.29L187.96 59.47Q189.70 61.41 189.70 63.44Q189.70 65.48 188.33 66.82Q186.96 68.15 184.28 68.15L184.28 68.15Q182.01 68.15 180.64 67.25Q179.27 66.35 177.67 64.55L177.67 64.55L161.37 46.30L161.23 46.30L161.23 61.94Q161.23 64.88 159.70 66.52Q158.16 68.15 155.08 68.15ZM200.59 68.15L200.59 68.15Q198.52 68.15 197.11 67.19Q195.71 66.22 195.38 64.51Q195.04 62.81 195.98 60.67L195.98 60.67L212.62 24.86Q213.82 22.25 215.59 21.05Q217.36 19.84 219.63 19.84L219.63 19.84Q221.90 19.84 223.61 21.05Q225.31 22.25 226.58 24.86L226.58 24.86L243.22 60.67Q244.29 62.81 243.99 64.55Q243.69 66.28 242.32 67.22Q240.95 68.15 238.94 68.15L238.94 68.15Q236.27 68.15 234.83 66.95Q233.40 65.75 232.26 63.08L232.26 63.08L228.65 54.59L233.33 58.00L205.80 58.00L210.54 54.59L206.94 63.08Q205.73 65.75 204.46 66.95Q203.19 68.15 200.59 68.15ZM219.63 33.28L219.50 33.28L211.75 51.78L209.88 48.58L229.32 48.58L227.45 51.78L219.63 33.28ZM258.85 68.15L258.85 68.15Q255.91 68.15 254.31 66.52Q252.71 64.88 252.71 61.94L252.71 61.94L252.71 26.66Q252.71 23.65 254.34 22.05Q255.98 20.45 258.92 20.45L258.92 20.45L275.36 20.45Q283.38 20.45 287.75 24.36Q292.13 28.26 292.13 35.21L292.13 35.21Q292.13 39.69 290.16 43.00Q288.19 46.30 284.48 48.08Q280.77 49.85 275.36 49.85L275.36 49.85L275.89 48.64L279.10 48.64Q281.97 48.64 284.18 50.01Q286.38 51.38 287.85 54.19L287.85 54.19L291.19 60.20Q292.26 62.14 292.20 63.98Q292.13 65.82 290.76 66.99Q289.39 68.15 286.78 68.15L286.78 68.15Q284.18 68.15 282.54 67.09Q280.90 66.02 279.63 63.74L279.63 63.74L273.55 52.59Q272.75 51.12 271.52 50.55Q270.28 49.98 268.68 49.98L268.68 49.98L265.00 49.98L265.00 61.94Q265.00 64.88 263.46 66.52Q261.93 68.15 258.85 68.15ZM265.00 29.87L265.00 41.29L273.15 41.29Q276.69 41.29 278.56 39.89Q280.44 38.49 280.44 35.55L280.44 35.55Q280.44 32.74 278.56 31.30Q276.69 29.87 273.15 29.87L273.15 29.87L265.00 29.87Z"
         transform="translate(0, 0)"
         id="path5"
         style="fill:#ffffff" />
    </g>
  </svg>
</svg>
